<svg xmlns="http://www.w3.org/2000/svg" width="257" height="128" fill="none" viewBox="0 0 257 128">
    <path fill="#172844" d="M29.95 64c0-13.9 6.82-22.094 12.543-26.521 6.162-4.767 14.426-7.614 22.104-7.614 9.423 0 17.956 3.923 24.675 11.344l9.16 11.052 19.691-23.771-6.631-7.324C89.766-2.826 60.839-3.234 41.012 4.381 21.187 11.998 0 31.661 0 64s21.186 52.002 41.013 59.619c19.826 7.616 48.753 7.207 70.479-16.785l6.631-7.324L98.432 75.74l-9.16 11.052c-6.72 7.421-15.252 11.344-24.675 11.344-7.678 0-15.942-2.847-22.104-7.614C36.77 86.094 29.95 77.899 29.949 64z"/>
    <path fill="#E50047" d="M127.888 88l19.982-24-19.982-24-19.983 24 19.983 24z"/>
    <path fill="#172844" d="M226.052 64c0-13.9-6.821-22.094-12.543-26.521-6.163-4.767-14.426-7.614-22.105-7.614-9.423 0-17.955 3.923-24.675 11.344L157.57 52.26 137.879 28.49l6.631-7.324c21.726-23.992 50.653-24.4 70.479-16.785 19.826 7.617 41.012 27.28 41.013 59.619-.001 32.339-21.187 52.002-41.013 59.619-19.826 7.616-48.753 7.207-70.479-16.785l-6.631-7.324L157.57 75.74l9.159 11.052c6.72 7.421 15.252 11.344 24.675 11.344 7.679 0 15.942-2.847 22.105-7.614 5.722-4.427 12.543-12.622 12.543-26.521z"/>
</svg>
