<svg xmlns="http://www.w3.org/2000/svg" width="128" height="64" fill="none" viewBox="0 0 128 64">
    <path fill="#172844" d="M109.538 64H128c0-35.346-28.654-64-64-64C28.654 0 0 28.654 0 64h18.462c0-25.15 20.388-45.538 45.538-45.538 25.15 0 45.538 20.388 45.538 45.538z"/>
    <path fill="#172844" d="M84.923 64h18.462c0-21.752-17.634-39.385-39.385-39.385-21.752 0-39.385 17.634-39.385 39.385h18.462c0-11.556 9.367-20.923 20.923-20.923 11.555 0 20.923 9.367 20.923 20.923z"/>
    <path fill="#E50047" d="M54 54H74V64H54z"/>
</svg>
