<svg xmlns="http://www.w3.org/2000/svg" width="129" height="64" fill="none" viewBox="0 0 129 64">
    <path fill="#172844" d="M0 32h14.988c0-6.95 3.413-11.047 6.277-13.26 3.084-2.384 7.22-3.807 11.062-3.807 4.716 0 8.986 1.96 12.348 5.671l4.584 5.527 9.854-11.886-3.318-3.662c-10.873-11.996-25.349-12.2-35.27-8.392C10.602 5.999 0 15.83 0 32z"/>
    <path fill="#172844" d="M0 32h14.988c0 6.95 3.413 11.047 6.277 13.26 3.084 2.384 7.22 3.807 11.062 3.807 4.716 0 8.986-1.961 12.348-5.672l4.584-5.526 9.854 11.886-3.318 3.661c-10.873 11.997-25.349 12.201-35.27 8.393C10.602 58 0 48.169 0 31.999z"/>
    <path fill="#E50047" d="M64 44l10-12-10-12-10 12 10 12z"/>
    <path fill="#172844" d="M128.113 32h-14.988c0-6.95-3.413-11.047-6.277-13.26-3.084-2.384-7.22-3.807-11.062-3.807-4.716 0-8.985 1.96-12.348 5.671l-4.584 5.527L69 14.245l3.318-3.662c10.873-11.996 25.349-12.2 35.271-8.392S128.113 15.83 128.113 32z"/>
    <path fill="#172844" d="M128.113 32h-14.988c0 6.95-3.413 11.047-6.277 13.26-3.084 2.384-7.22 3.807-11.062 3.807-4.716 0-8.985-1.961-12.348-5.672l-4.584-5.526L69 49.755l3.318 3.661c10.873 11.997 25.349 12.201 35.271 8.393 9.922-3.809 20.524-13.64 20.524-29.81z"/>
</svg>
