<svg fill="none" height="64" viewBox="0 0 129 64" width="129" xmlns="http://www.w3.org/2000/svg"><path d="m14.988 32c0-6.95 3.413-11.047 6.277-13.26 3.084-2.384 7.22-3.807 11.062-3.807 4.716 0 8.986 1.96 12.348 5.671l4.584 5.527 9.854-11.886-3.318-3.662c-10.873-11.996-25.349-12.2-35.27-8.392-9.923 3.808-20.525 13.639-20.525 29.809s10.602 26 20.524 29.809c9.922 3.808 24.398 3.604 35.27-8.392l3.319-3.662-9.854-11.886-4.584 5.526c-3.362 3.71-7.632 5.672-12.348 5.672-3.843 0-7.978-1.423-11.062-3.807-2.864-2.213-6.277-6.31-6.277-13.26z" fill="#172844"/><path d="m64 44 10-12-10-12-10 12z" fill="#e50047"/><path d="m113.125 32c0-6.95-3.413-11.047-6.277-13.26-3.084-2.384-7.22-3.807-11.062-3.807-4.716 0-8.985 1.96-12.348 5.671l-4.584 5.527-9.854-11.886 3.318-3.662c10.873-11.996 25.349-12.2 35.271-8.392s20.524 13.639 20.524 29.809-10.602 26-20.524 29.809c-9.922 3.808-24.398 3.604-35.27-8.392l-3.319-3.662 9.854-11.886 4.584 5.526c3.363 3.71 7.632 5.672 12.348 5.672 3.843 0 7.978-1.423 11.062-3.807 2.864-2.213 6.277-6.31 6.277-13.26z" fill="#172844"/></svg>