<svg width="256" viewBox="0 0 256 88" version="1.1" xmlns="http://www.w3.org/2000/svg" xmlns:xlink="http://www.w3.org/1999/xlink" xml:space="preserve" xmlns:serif="http://www.serif.com/" style="fill-rule:evenodd;clip-rule:evenodd;stroke-linejoin:round;stroke-miterlimit:2;">
    <g>
        <g transform="matrix(0.594997,0,0,0.594997,-122.375,-133.041)">
            <path d="M206.8,291.2L223,291.2L232.5,322.8L243,291.1L256,291.1L266.5,322.8L276,291.2L291.7,291.2L273.4,346.2L260.2,346.2L249.2,314.8L238.3,346.2L225.1,346.2L206.8,291.2Z" style="fill:rgb(229,0,71);fill-rule:nonzero;"/>
            <path d="M309.5,290.9L324.2,290.9L347.4,345.9L331.2,345.9L327.2,336.1L306.1,336.1L302.2,345.9L286.3,345.9L309.5,290.9ZM322.9,324.3L316.8,308.8L310.6,324.3L322.9,324.3Z" style="fill:rgb(229,0,71);fill-rule:nonzero;"/>
            <path d="M359.1,304.5L342.7,304.5L342.7,291.2L390.6,291.2L390.6,304.5L374.2,304.5L374.2,345.8L359.1,345.8L359.1,304.5Z" style="fill:rgb(229,0,71);fill-rule:nonzero;"/>
            <path d="M393,318.7L393,318.5C393,302.6 405.2,290.1 421.8,290.1C438.4,290.1 440.1,294.8 445,301.5L433.6,310.3C430.5,306.4 426.9,303.9 421.7,303.9C414.1,303.9 408.7,310.4 408.7,318.3L408.7,318.5C408.7,326.7 414.1,333.1 421.7,333.1C429.3,333.1 430.7,330.4 434,326.5L445.4,334.6C440.3,341.7 433.3,346.9 421.2,346.9C409.1,346.9 393,335 393,318.7Z" style="fill:rgb(229,0,71);fill-rule:nonzero;"/>
            <path d="M451.8,291.2L466.9,291.2L466.9,311.6L486.3,311.6L486.3,291.2L501.4,291.2L501.4,345.8L486.3,345.8L486.3,325.1L466.9,325.1L466.9,345.8L451.8,345.8L451.8,291.2Z" style="fill:rgb(229,0,71);fill-rule:nonzero;"/>
            <path d="M207,224.6L230.4,224.6C244.2,224.6 253.1,231.7 253.1,243.8L253.1,244C253.1,256.9 243.2,263.7 229.6,263.7L222.1,263.7L222.1,279.3L207,279.3L207,224.6ZM229.3,251.7C234.7,251.7 238,248.9 238,244.6L238,244.4C238,239.7 234.7,237.2 229.3,237.2L222.2,237.2L222.2,251.6L229.4,251.6L229.3,251.7Z" style="fill:white;fill-rule:nonzero;"/>
            <path d="M322.2,225.5L337.4,225.5L337.4,266.8L363.8,266.8L363.8,280.1L322.2,280.1L322.2,225.5Z" style="fill:white;fill-rule:nonzero;"/>
            <rect x="370.7" y="225.5" width="15.2" height="54.6" style="fill:white;fill-rule:nonzero;"/>
            <path d="M410.2,238.8L393.8,238.8L393.8,225.5L441.7,225.5L441.7,238.8L425.3,238.8L425.3,280.1L410.2,280.1L410.2,238.8Z" style="fill:white;fill-rule:nonzero;"/>
            <rect x="449.6" y="225.5" width="15.2" height="54.6" style="fill:white;fill-rule:nonzero;"/>
            <path d="M473,253L473,252.8C473,236.9 485.2,224.4 501.8,224.4C518.4,224.4 520.1,229.1 525,235.8L513.6,244.6C510.5,240.7 506.9,238.2 501.7,238.2C494.1,238.2 488.7,244.7 488.7,252.6L488.7,252.8C488.7,261 494.1,267.4 501.7,267.4C509.3,267.4 510.7,264.7 514,260.8L525.4,268.9C520.3,276 513.3,281.2 501.2,281.2C489.1,281.2 473,269.3 473,253Z" style="fill:white;fill-rule:nonzero;"/>
            <path d="M550.1,225.1L564.8,225.1L588,280.1L571.8,280.1L567.8,270.3L546.7,270.3L542.8,280.1L526.9,280.1L550.1,225.1ZM563.4,258.6L557.3,243.1L551.1,258.6L563.4,258.6Z" style="fill:white;fill-rule:nonzero;"/>
            <path d="M593.2,225.5L608.4,225.5L608.4,266.8L634.8,266.8L634.8,280.1L593.2,280.1L593.2,225.5Z" style="fill:white;fill-rule:nonzero;"/>
            <g>
                <path d="M267.2,271.9C261.8,266.5 258.9,259.4 258.9,251.9C258.9,244.4 261.8,237.2 267.2,231.9C272.6,226.5 279.7,223.6 287.2,223.6C294.7,223.6 301.9,226.5 307.2,231.9C312.6,237.3 315.5,244.4 315.5,251.9C315.5,259.4 312.6,266.6 307.2,271.9C301.8,277.3 294.7,280.2 287.2,280.2C279.7,280.2 272.5,277.3 267.2,271.9ZM269.7,251.9C269.7,261.6 277.6,269.4 287.2,269.4C296.8,269.4 304.7,261.5 304.7,251.9C304.7,242.3 296.8,234.4 287.2,234.4C277.6,234.4 269.7,242.3 269.7,251.9Z" style="fill:white;fill-rule:nonzero;"/>
                <path d="M284.5,242.9C285.3,243.1 285.9,243.5 286.5,244C287.8,245.2 288.2,247.2 287.5,248.8C286.7,250.5 284.8,251.6 283,251.4C281.1,251.2 279.3,249.4 279.3,247.4C279.3,247.3 279.3,247.1 279.2,247.1C279.1,247.1 279,247.2 279,247.3C278.1,248.8 277.8,250.4 277.8,252.1C277.8,254.5 278.7,256.5 280.3,258.3C281.9,260 283.8,261 286.1,261.3C289.6,261.7 292.5,260.5 294.7,257.9C296.3,255.9 297,253.6 296.8,251C296.6,248.9 295.8,247 294.4,245.4C293,243.9 291.2,242.9 289.1,242.5C287.8,242.3 286.5,242.2 285.2,242.5C285,242.5 284.8,242.5 284.6,242.8L284.5,242.9Z" style="fill:white;"/>
            </g>
        </g>
        <g transform="matrix(0.594997,0,0,0.594997,-122.375,-133.041)">
            <path d="M207,359.2C207,359 207.1,358.9 207.3,358.9L214.3,358.9C214.5,358.9 214.6,359.1 214.6,359.2L214.6,360.2C214.6,360.4 214.5,360.5 214.3,360.5L208.8,360.5L208.8,364.5L213.5,364.5C213.7,364.5 213.8,364.7 213.8,364.8L213.8,365.8C213.8,366 213.6,366.1 213.5,366.1L208.8,366.1L208.8,370.7C208.8,370.9 208.6,371 208.5,371L207.4,371C207.2,371 207.1,370.8 207.1,370.7L207.1,359.2L207,359.2Z" style="fill:white;fill-rule:nonzero;"/>
            <path d="M216.7,359.2C216.7,359 216.9,358.9 217,358.9L218.2,358.9C218.4,358.9 218.5,359.1 218.5,359.2L218.5,366.4C218.5,368.1 219.6,369.5 221.4,369.5C223.2,369.5 224.3,368.2 224.3,366.4L224.3,359.2C224.3,359 224.4,358.9 224.6,358.9L225.8,358.9C226,358.9 226.1,359.1 226.1,359.2L226.1,366.5C226.1,369.2 224.1,371.2 221.3,371.2C218.5,371.2 216.6,369.1 216.6,366.5L216.6,359.2L216.7,359.2Z" style="fill:white;fill-rule:nonzero;"/>
            <path d="M229.4,359C229.4,358.8 229.6,358.7 229.7,358.7L230.1,358.7L237.7,367.5L237.7,359.3C237.7,359.1 237.8,359 238,359L239.1,359C239.3,359 239.4,359.2 239.4,359.3L239.4,371C239.4,371.2 239.2,371.3 239.1,371.3L238.6,371.3L231,362.3L231,370.8C231,371 230.9,371.1 230.7,371.1L229.6,371.1C229.4,371.1 229.3,370.9 229.3,370.8L229.3,359.1L229.4,359Z" style="fill:white;fill-rule:nonzero;"/>
            <path d="M243,359.2C243,359 243.1,358.9 243.3,358.9L247.3,358.9C250.7,358.9 253.4,361.6 253.4,365C253.4,368.4 250.6,371.1 247.3,371.1L243.3,371.1C243.1,371.1 243,370.9 243,370.8L243,359.2ZM247,369.5C249.6,369.5 251.4,367.6 251.4,365C251.4,362.4 249.5,360.6 247,360.6L244.7,360.6L244.7,369.5L247,369.5Z" style="fill:white;fill-rule:nonzero;"/>
            <path d="M254.2,370.7L259.6,359C259.6,358.9 259.8,358.8 259.9,358.8L260.1,358.8C260.1,358.8 260.3,358.8 260.4,359L265.7,370.7C265.8,370.9 265.7,371.2 265.4,371.2L264.3,371.2C264.1,371.2 264,371.1 263.9,370.9L262.8,368.5L257.1,368.5C256.8,369.3 256.4,370.1 256,370.9C256,371 255.8,371.2 255.6,371.2L254.5,371.2C254.2,371.2 254.1,371 254.2,370.7ZM262.1,367L260,362.2L257.9,367L262.3,367L262.1,367Z" style="fill:white;fill-rule:nonzero;"/>
            <path d="M272.7,358.7C274.5,358.7 275.7,359.3 276.9,360.3C277.1,360.4 277.1,360.6 276.9,360.8L276.1,361.6C276,361.8 275.8,361.8 275.7,361.6C274.9,360.9 273.8,360.4 272.7,360.4C270.2,360.4 268.3,362.5 268.3,364.9C268.3,367.3 270.2,369.4 272.7,369.4C275.2,369.4 274.9,368.9 275.7,368.2C275.9,368.1 276,368.1 276.1,368.2L276.9,369C277,369.1 277,369.3 276.9,369.5C275.7,370.7 274.2,371.2 272.7,371.2C269.2,371.2 266.4,368.4 266.4,364.9C266.4,361.4 269.2,358.6 272.7,358.6L272.7,358.7Z" style="fill:white;fill-rule:nonzero;"/>
            <path d="M279.5,359.2C279.5,359 279.7,358.9 279.8,358.9L281,358.9C281.2,358.9 281.3,359.1 281.3,359.2L281.3,370.7C281.3,370.9 281.1,371 281,371L279.8,371C279.6,371 279.5,370.8 279.5,370.7L279.5,359.2Z" style="fill:white;fill-rule:nonzero;"/>
            <path d="M290,358.7C293.5,358.7 296.3,361.5 296.3,365C296.3,368.5 293.5,371.3 290,371.3C286.5,371.3 283.7,368.5 283.7,365C283.7,361.5 286.5,358.7 290,358.7ZM290,369.5C292.5,369.5 294.5,367.5 294.5,365C294.5,362.5 292.5,360.4 290,360.4C287.5,360.4 285.5,362.5 285.5,365C285.5,367.5 287.5,369.5 290,369.5ZM288.4,357.5L288.2,357C288.2,356.9 288.2,356.7 288.3,356.7L291,355.1C291.1,355.1 291.4,355 291.5,355.1L291.9,355.9C292,356.1 291.9,356.2 291.8,356.3L288.9,357.6C288.7,357.7 288.6,357.6 288.5,357.6L288.4,357.5Z" style="fill:white;fill-rule:nonzero;"/>
            <path d="M298.8,359C298.8,358.8 299,358.7 299.1,358.7L299.5,358.7L307.1,367.5L307.1,359.3C307.1,359.1 307.2,359 307.4,359L308.5,359C308.7,359 308.8,359.2 308.8,359.3L308.8,371C308.8,371.2 308.6,371.3 308.5,371.3L308,371.3L300.4,362.3L300.4,370.8C300.4,371 300.3,371.1 300.1,371.1L299,371.1C298.8,371.1 298.7,370.9 298.7,370.8L298.7,359.1L298.8,359Z" style="fill:white;fill-rule:nonzero;"/>
            <path d="M315.4,369.4C315.6,369.2 315.7,368.9 315.9,368.7C316.1,368.5 316.3,368.4 316.5,368.6C316.6,368.6 317.9,369.8 319.3,369.8C320.7,369.8 321.3,369.1 321.3,368.2C321.3,367.3 320.4,366.5 318.7,365.8C316.9,365 315.5,364.1 315.5,362.1C315.5,360.1 316.5,358.9 319.3,358.9C322.1,358.9 322.4,359.8 322.5,359.9C322.6,359.9 322.8,360.2 322.6,360.5C322.5,360.7 322.3,361 322.2,361.2C322.1,361.4 321.8,361.5 321.6,361.4C321.5,361.4 320.3,360.5 319.2,360.5C317.7,360.5 317.2,361.4 317.2,362.1C317.2,363.1 318,363.7 319.4,364.3C321.4,365.1 323.1,366.1 323.1,368.2C323.1,370.3 321.5,371.5 319.2,371.5C316.9,371.5 315.7,370.4 315.5,370.1C315.3,370 315.2,369.8 315.4,369.5L315.4,369.4Z" style="fill:white;fill-rule:nonzero;"/>
            <path d="M323.9,370.7L329.3,359C329.3,358.9 329.5,358.8 329.6,358.8L329.8,358.8C329.8,358.8 330,358.8 330.1,359L335.4,370.7C335.5,370.9 335.4,371.2 335.1,371.2L334,371.2C333.8,371.2 333.7,371.1 333.6,370.9L332.5,368.5L326.8,368.5C326.5,369.3 326.1,370.1 325.7,370.9C325.7,371 325.5,371.2 325.3,371.2L324.2,371.2C323.9,371.2 323.8,371 323.9,370.7ZM331.8,367L329.7,362.2L327.6,367L332,367L331.8,367Z" style="fill:white;fill-rule:nonzero;"/>
            <path d="M337.1,359.2C337.1,359 337.2,358.9 337.4,358.9L338.6,358.9C338.8,358.9 338.9,359.1 338.9,359.2L338.9,369.5L343.6,369.5C343.8,369.5 343.9,369.7 343.9,369.8L343.9,370.8C343.9,371 343.8,371.1 343.6,371.1L337.4,371.1C337.2,371.1 337.1,370.9 337.1,370.8L337.1,359.2Z" style="fill:white;fill-rule:nonzero;"/>
            <path d="M342.7,359.4C342.6,359.2 342.7,358.9 343,358.9L344.2,358.9C344.3,358.9 344.5,359 344.5,359.1L348.3,367.7L348.4,367.7L352.2,359.1C352.2,359.1 352.3,358.9 352.5,358.9L353.7,358.9C354,358.9 354.1,359.1 354,359.4L348.6,371.1C348.6,371.2 348.4,371.3 348.3,371.3L348.1,371.3C348,371.3 347.9,371.3 347.8,371.1L342.5,359.4L342.7,359.4Z" style="fill:white;fill-rule:nonzero;"/>
            <path d="M353.5,370.7L358.9,359C358.9,358.9 359.1,358.8 359.2,358.8L359.4,358.8C359.4,358.8 359.6,358.8 359.7,359L365,370.7C365.1,370.9 365,371.2 364.7,371.2L363.6,371.2C363.4,371.2 363.3,371.1 363.2,370.9L362.1,368.5L356.4,368.5C356.1,369.3 355.7,370.1 355.3,370.9C355.3,371 355.1,371.2 354.9,371.2L353.8,371.2C353.5,371.2 353.4,371 353.5,370.7ZM361.4,367L359.3,362.2L357.2,367L361.6,367L361.4,367Z" style="fill:white;fill-rule:nonzero;"/>
            <path d="M366.7,359.2C366.7,359 366.8,358.9 367,358.9L371,358.9C374.4,358.9 377.1,361.6 377.1,365C377.1,368.4 374.3,371.1 371,371.1L367,371.1C366.8,371.1 366.7,370.9 366.7,370.8L366.7,359.2ZM370.8,369.5C373.4,369.5 375.2,367.6 375.2,365C375.2,362.4 373.3,360.6 370.8,360.6L368.5,360.6L368.5,369.5L370.8,369.5Z" style="fill:white;fill-rule:nonzero;"/>
            <path d="M385,358.7C388.5,358.7 391.3,361.5 391.3,365C391.3,368.5 388.5,371.3 385,371.3C381.5,371.3 378.7,368.5 378.7,365C378.7,361.5 381.5,358.7 385,358.7ZM385,369.5C387.5,369.5 389.5,367.5 389.5,365C389.5,362.5 387.5,360.4 385,360.4C382.5,360.4 380.5,362.5 380.5,365C380.5,367.5 382.5,369.5 385,369.5Z" style="fill:white;fill-rule:nonzero;"/>
            <path d="M393.8,359.2C393.8,359 393.9,358.9 394.1,358.9L398.8,358.9C400.9,358.9 402.6,360.6 402.6,362.6C402.6,364.6 401.5,365.5 400,366.1L402.4,370.5C402.5,370.7 402.4,371 402.1,371L400.7,371C400.6,371 400.5,371 400.4,370.8L398.1,366.2L395.5,366.2L395.5,370.6C395.5,370.8 395.3,370.9 395.2,370.9L394.1,370.9C393.9,370.9 393.8,370.7 393.8,370.6L393.8,359.1L393.8,359.2ZM398.8,364.8C399.9,364.8 400.9,363.8 400.9,362.6C400.9,361.4 399.9,360.5 398.8,360.5L395.7,360.5L395.7,364.7L398.8,364.7L398.8,364.8Z" style="fill:white;fill-rule:nonzero;"/>
            <path d="M408.5,369.4C408.7,369.2 408.8,368.9 409,368.7C409.2,368.5 409.4,368.4 409.6,368.6C409.7,368.6 411,369.8 412.4,369.8C413.8,369.8 414.4,369.1 414.4,368.2C414.4,367.3 413.5,366.5 411.8,365.8C410,365 408.6,364.1 408.6,362.1C408.6,360.1 409.6,358.9 412.4,358.9C415.2,358.9 415.5,359.8 415.6,359.9C415.7,359.9 415.9,360.2 415.7,360.5C415.6,360.7 415.4,361 415.3,361.2C415.2,361.4 414.9,361.5 414.7,361.4C414.6,361.4 413.4,360.5 412.3,360.5C410.8,360.5 410.3,361.4 410.3,362.1C410.3,363.1 411.1,363.7 412.5,364.3C414.5,365.1 416.2,366.1 416.2,368.2C416.2,370.3 414.6,371.5 412.3,371.5C410,371.5 408.8,370.4 408.6,370.1C408.4,370 408.3,369.8 408.5,369.5L408.5,369.4Z" style="fill:white;fill-rule:nonzero;"/>
            <path d="M424,358.7C427.5,358.7 430.3,361.5 430.3,365C430.3,368.5 427.5,371.3 424,371.3C420.5,371.3 417.7,368.5 417.7,365C417.7,361.5 420.5,358.7 424,358.7ZM424,369.5C426.5,369.5 428.5,367.5 428.5,365C428.5,362.5 426.5,360.4 424,360.4C421.5,360.4 419.5,362.5 419.5,365C419.5,367.5 421.5,369.5 424,369.5Z" style="fill:white;fill-rule:nonzero;"/>
            <path d="M432.8,359.2C432.8,359 432.9,358.9 433.1,358.9L434.3,358.9C434.5,358.9 434.6,359.1 434.6,359.2L434.6,369.5L439.3,369.5C439.5,369.5 439.6,369.7 439.6,369.8L439.6,370.8C439.6,371 439.5,371.1 439.3,371.1L433.1,371.1C432.9,371.1 432.8,370.9 432.8,370.8L432.8,359.2Z" style="fill:white;fill-rule:nonzero;"/>
            <path d="M441.5,359.2C441.5,359 441.6,358.9 441.8,358.9L448.8,358.9C449,358.9 449.1,359.1 449.1,359.2L449.1,360.2C449.1,360.4 449,360.5 448.8,360.5L443.3,360.5L443.3,364.1L448,364.1C448.2,364.1 448.3,364.3 448.3,364.4L448.3,365.4C448.3,365.6 448.1,365.7 448,365.7L443.3,365.7L443.3,369.5L448.8,369.5C449,369.5 449.1,369.7 449.1,369.8L449.1,370.8C449.1,371 449,371.1 448.8,371.1L441.8,371.1C441.6,371.1 441.5,370.9 441.5,370.8L441.5,359.2Z" style="fill:white;fill-rule:nonzero;"/>
            <path d="M451.8,359.2C451.8,359 451.9,358.9 452.1,358.9L456.8,358.9C458.9,358.9 460.6,360.6 460.6,362.6C460.6,364.6 459.5,365.5 458,366.1L460.4,370.5C460.5,370.7 460.4,371 460.1,371L458.7,371C458.6,371 458.5,371 458.4,370.8L456.1,366.2L453.5,366.2L453.5,370.6C453.5,370.8 453.3,370.9 453.2,370.9L452.1,370.9C451.9,370.9 451.8,370.7 451.8,370.6L451.8,359.1L451.8,359.2ZM456.7,364.8C457.8,364.8 458.8,363.8 458.8,362.6C458.8,361.4 457.8,360.5 456.7,360.5L453.6,360.5L453.6,364.7L456.7,364.7L456.7,364.8Z" style="fill:white;fill-rule:nonzero;"/>
        </g>
    </g>
</svg>
