<svg width="16" height="14" viewBox="0 0 16 14" fill="none" xmlns="http://www.w3.org/2000/svg">
<path d="M15.9969 1.62248C15.9969 -0.8092 13.8529 -0.045343 12.529 0.94269C10.6953 2.31058 8.72295 5.08579 7.99793 6.5751C7.31842 5.17919 5.5426 2.65307 3.81228 1.21565L3.46684 0.94269C2.14402 -0.045343 0 -0.808162 0 1.62248C0 2.10923 0.280285 5.70123 0.444732 6.2845C1.01564 8.31246 3.09657 8.83035 4.9479 8.51692C1.71273 9.06387 0.889464 10.877 2.66736 12.6901C6.04318 16.1327 7.51907 11.8266 7.89761 10.7223C7.9669 10.52 7.99896 10.4255 8 10.5054C8 10.4255 8.0331 10.52 8.10239 10.7223C8.48093 11.8266 9.95682 16.1316 13.3326 12.6901C15.1105 10.877 14.2873 9.0649 11.0521 8.51692C12.9034 8.83035 14.9833 8.31246 15.5553 6.2845C15.7197 5.70123 16 2.10923 16 1.62248H15.9969Z" fill="#E50047"/>
</svg>
