<svg xmlns="http://www.w3.org/2000/svg" width="16" height="16" fill="none" viewBox="0 0 16 16">
    <path fill="#E50047" d="M15.104 4.311l-.052.023c-1.166.519-2.377.896-3.619 1.144.351 1.665.35 3.385-.002 5.049 1.242.247 2.459.621 3.62 1.138l.051.023C15.673 10.583 16 9.331 16 8s-.327-2.583-.896-3.689zM5.816 11.349c.442 1.407 1.171 2.74 2.183 3.918 1.012-1.178 1.742-2.511 2.183-3.918-1.449-.192-2.917-.191-4.366 0zM10.442 5.634c-.804.113-1.616.19-2.442.19-.827 0-1.639-.078-2.443-.19-.337 1.562-.337 3.178.002 4.74 1.619-.225 3.262-.225 4.881 0 .339-1.562.34-3.178.002-4.74zM7.999.733C6.987 1.91 6.258 3.243 5.816 4.652c1.449.19 2.918.19 4.366 0C9.74 3.245 9.011 1.91 7.999.732zM8.689 0c1.174 1.344 2.01 2.877 2.496 4.496 1.166-.228 2.308-.575 3.398-1.056C13.263 1.521 11.133.21 8.689 0zM1.416 3.44c1.091.48 2.233.828 3.398 1.056C5.3 2.877 6.136 1.344 7.31 0 4.866.21 2.737 1.521 1.416 3.44zM4.567 5.479C3.325 5.23 2.115 4.854.95 4.335l-.052-.023C.327 5.417 0 6.669 0 8s.327 2.583.898 3.689l.052-.023c1.16-.518 2.377-.892 3.619-1.138-.353-1.664-.353-3.384-.002-5.049zM4.814 11.505c-1.166.227-2.308.575-3.398 1.055 1.321 1.919 3.45 3.23 5.894 3.44-1.174-1.344-2.01-2.877-2.496-4.495zM11.185 11.504C10.7 13.123 9.863 14.656 8.689 16c2.444-.21 4.574-1.521 5.894-3.44-1.09-.481-2.232-.828-3.398-1.056z"/>
</svg>
