<svg fill="none" height="13" viewBox="0 0 16 13" width="16" xmlns="http://www.w3.org/2000/svg"><path d="m0 11.547c1.45.92 3.168 1.45 5.01 1.45 5.174 0 9.37-4.195 9.37-9.369 0-.129-.004-.257-.009-.385.188-.147 1.345-1.075 1.629-1.672 0 0-.94.391-1.86.483h-.006s.002 0 .005-.003c.085-.056 1.27-.863 1.43-1.824 0 0-.665.355-1.595.665-.155.051-.316.102-.482.148-.6-.64-1.453-1.04-2.4-1.04-1.816 0-3.288 1.471-3.288 3.286 0 .256.03.505.085.745-.254-.01-4.118-.227-6.748-3.411 0 0-1.571 2.145.937 4.35 0 0-.763-.03-1.42-.423 0 0-.242 2.6 2.598 3.264 0 0-.559.211-1.45.06 0 0 .498 2.1 3.022 2.297 0 0-1.996 1.802-4.828 1.38z" fill="#172844"/></svg>