<svg xmlns="http://www.w3.org/2000/svg" width="16" height="16" fill="none" viewBox="0 0 16 16">
    <path fill="#172844" d="M1.932 0c1.05 0 1.916.87 1.914 1.928-.002 1.108-.92 1.942-1.927 1.918C.898 3.867 0 3.012 0 1.921 0 .862.87-.001 1.932 0zM3.048 15.998H.798c-.292 0-.529-.237-.529-.53v-9.62c0-.293.237-.53.529-.53h2.25c.292 0 .529.237.529.53v9.62c0 .293-.237.53-.53.53zM16 8.697c0-2.017-1.631-3.652-3.643-3.652h-.577c-1.101 0-2.074.55-2.659 1.392-.064.092-.123.187-.177.285l-.03-.004v-1.18c0-.122-.098-.22-.22-.22H5.888c-.122 0-.22.098-.22.22v10.24c0 .121.098.22.22.22h2.868c.12 0 .22-.098.22-.22V9.862c0-1.022.813-1.871 1.833-1.883.52-.006.993.203 1.333.545.336.336.544.801.544 1.315v5.94c0 .122.098.22.22.22L15.78 16c.122 0 .22-.098.22-.22V8.697z"/>
</svg>
