<svg xmlns="http://www.w3.org/2000/svg" width="256" height="128" fill="none" viewBox="0 0 256 128">
    <path fill="#172844" d="M219.077 128H256C256 57.308 198.692 0 128 0 57.308 0 0 57.307 0 128h36.923c0-50.3 40.777-91.077 91.077-91.077S219.077 77.7 219.077 128z"/>
    <path fill="#172844" d="M169.846 128h36.923c0-43.503-35.266-78.77-78.769-78.77-43.503 0-78.77 35.267-78.77 78.77h36.924c0-23.111 18.735-41.846 41.846-41.846 23.111 0 41.846 18.735 41.846 41.846z"/>
    <path fill="#E50047" d="M108 108H148V128H108z"/>
</svg>
