<svg fill="none" height="482" viewBox="0 0 640 482" width="640" xmlns="http://www.w3.org/2000/svg" xmlns:xlink="http://www.w3.org/1999/xlink"><clipPath id="a"><path d="m0 0h640v482h-640z"/></clipPath><g clip-path="url(#a)"><path d="m295.138 102.826h-157.88c-.775-.001-1.518-.308-2.066-.855s-.857-1.288-.858-2.061v-39.066c.001-.773.31-1.514.858-2.06.548-.547 1.291-.855 2.066-.856h157.88c.775.001 1.518.309 2.066.855.549.547.857 1.288.858 2.061v39.066c-.001.773-.309 1.514-.858 2.061-.548.547-1.291.854-2.066.855zm-157.88-43.731c-.465 0-.911.185-1.24.513s-.514.773-.514 1.236v39.066c0 .464.185.908.514 1.236.329.329.775.513 1.24.514h157.88c.465-.001.911-.185 1.24-.514.329-.328.514-.772.514-1.236v-39.066c0-.463-.185-.908-.514-1.236s-.775-.513-1.24-.513z" fill="#172844"/><path d="m161.789 90.758c6.578 0 11.91-5.319 11.91-11.88 0-6.56-5.332-11.88-11.91-11.88-6.577 0-11.909 5.32-11.909 11.88 0 6.561 5.332 11.88 11.909 11.88z" fill="#e50047"/><path d="m189.295 70.958c-.527 0-1.031.209-1.404.58-.372.371-.581.875-.581 1.4s.209 1.029.581 1.4c.373.372.877.58 1.404.58h93.575c.527 0 1.032-.208 1.404-.58.372-.371.581-.875.581-1.4s-.209-1.029-.581-1.4-.877-.58-1.404-.58zm0 11.88c-.527 0-1.031.209-1.404.58-.372.371-.581.875-.581 1.4s.209 1.029.581 1.4c.373.371.877.58 1.404.58h40.266c.261 0 .519-.05.76-.15.242-.099.461-.245.646-.429.184-.183.331-.402.431-.642s.151-.499.151-.759-.051-.518-.151-.758-.247-.46-.431-.643c-.185-.184-.404-.33-.646-.43-.241-.099-.499-.15-.76-.149z" fill="#eaeaea"/><path d="m226.596 242.076h-70.169c-.775-.001-1.518-.309-2.066-.856-.548-.546-.857-1.288-.858-2.061v-72.895c.001-.773.31-1.514.858-2.061s1.291-.854 2.066-.855h70.169c.775.001 1.518.308 2.066.855.549.547.857 1.288.858 2.061v72.895c-.001.773-.309 1.515-.858 2.061-.548.547-1.291.855-2.066.856zm-70.169-77.562c-.465.001-.911.185-1.24.513s-.514.773-.514 1.237v72.895c0 .464.185.909.514 1.237s.775.513 1.24.513h70.169c.465 0 .911-.185 1.24-.513s.514-.773.514-1.237v-72.895c0-.464-.185-.909-.514-1.237s-.775-.512-1.24-.513z" fill="#172844"/><path d="m171.379 178.38c-.527 0-1.032.209-1.404.58s-.581.875-.581 1.4.209 1.029.581 1.4.877.58 1.404.58h40.266c.526 0 1.031-.209 1.403-.58s.581-.875.581-1.4-.209-1.029-.581-1.4-.877-.58-1.403-.58zm0 11.666c-.261-.001-.52.05-.761.149s-.46.245-.645.429-.331.403-.431.643-.152.498-.152.758c0 .261.052.519.152.759s.246.459.431.643.404.329.645.429c.241.099.5.15.761.149h40.266c.526 0 1.031-.208 1.403-.58.372-.371.581-.874.581-1.4 0-.525-.209-1.028-.581-1.4-.372-.371-.877-.579-1.403-.579z" fill="#eaeaea"/><path d="m191.512 227.043c-2.471 0-4.887-.731-6.942-2.1-2.054-1.37-3.656-3.316-4.601-5.593-.946-2.278-1.194-4.783-.711-7.201.482-2.418 1.672-4.638 3.419-6.381s3.974-2.93 6.397-3.411c2.424-.481 4.936-.234 7.219.709s4.234 2.541 5.607 4.59c1.373 2.05 2.106 4.459 2.106 6.924-.004 3.305-1.321 6.472-3.664 8.809-2.342 2.336-5.518 3.651-8.83 3.654z" fill="#e50047"/><path d="m341.545 0h70.169c.775 0 1.518.308 2.066.855s.856 1.288.857 2.061v72.895c-.001.774-.309 1.515-.857 2.062-.548.546-1.291.854-2.066.855h-70.169c-.776-.001-1.519-.308-2.067-.855s-.856-1.288-.857-2.062v-72.895c.001-.773.309-1.514.857-2.06.548-.548 1.291-.855 2.067-.856zm70.169 77.561c.465 0 .911-.185 1.239-.513.329-.328.514-.773.515-1.237v-72.895c-.001-.464-.186-.908-.515-1.236-.328-.328-.774-.513-1.239-.513h-70.169c-.466 0-.911.185-1.24.513s-.514.772-.515 1.236v72.895c.001.464.186.91.515 1.237.329.328.774.513 1.24.513z" fill="#172844"/><path d="m396.762 63.696c.526 0 1.031-.209 1.404-.58.372-.372.581-.875.581-1.4s-.209-1.03-.581-1.4c-.373-.372-.878-.58-1.404-.58h-40.266c-.526 0-1.031.208-1.403.58-.373.37-.582.875-.582 1.4s.209 1.028.582 1.4c.372.371.877.58 1.403.58zm0-11.666c.526 0 1.031-.209 1.404-.58.372-.371.581-.875.581-1.4s-.209-1.029-.581-1.4c-.373-.371-.878-.58-1.404-.58h-40.266c-.526 0-1.031.209-1.403.58-.373.371-.582.875-.582 1.4s.209 1.029.582 1.4c.372.371.877.58 1.403.58z" fill="#eaeaea"/><path d="m376.629 15.032c2.471 0 4.887.731 6.941 2.1 2.055 1.37 3.657 3.317 4.602 5.594.946 2.277 1.193 4.783.711 7.2-.482 2.418-1.672 4.639-3.419 6.382-1.748 1.743-3.974 2.93-6.397 3.41-2.424.482-4.936.235-7.219-.709-2.283-.943-4.235-2.54-5.608-4.59-1.372-2.05-2.105-4.459-2.105-6.924.004-3.304 1.321-6.472 3.663-8.808 2.343-2.337 5.519-3.651 8.831-3.655z" fill="#e50047"/><path d="m135.236 150.809c12.417-9.593 26.924-16.135 42.346-19.095 15.546-2.955 31.575-2.133 46.735 2.395 7.621 2.264 14.943 5.428 21.809 9.426 6.997 4.08 13.32 9.103 19.403 14.421 6.162 5.387 12.121 11.014 18.554 16.085 18.366 14.644 41.166 22.644 64.677 22.695 1.943.004 3.884-.05 5.823-.16 1.052-.057 1.059-1.697 0-1.639-23.966 1.317-47.633-5.817-66.858-20.152-6.667-4.973-12.755-10.659-18.97-16.169-6.026-5.343-12.212-10.539-19.049-14.831-16.721-10.508-36.173-15.872-55.931-15.423-19.757.45-38.945 6.692-55.169 17.949-1.542 1.07-3.049 2.188-4.532 3.339-.833.647.337 1.799 1.162 1.159z" fill="#172844"/><path d="m134.364 158.731c4.716 0 8.538-3.813 8.538-8.517s-3.822-8.518-8.538-8.518-8.539 3.814-8.539 8.518 3.823 8.517 8.539 8.517zm317.657 113.087c4.716 0 8.539-3.814 8.539-8.518s-3.823-8.517-8.539-8.517-8.539 3.813-8.539 8.517 3.823 8.518 8.539 8.518zm44.732-57.036h-139.325c-.776-.001-1.519-.309-2.067-.856-.548-.546-.856-1.288-.857-2.061v-72.312c.001-.773.309-1.514.857-2.061s1.291-.854 2.067-.855h139.325c.776.001 1.519.308 2.067.855s.856 1.288.857 2.061v72.312c-.001.773-.309 1.515-.857 2.061-.548.547-1.291.855-2.067.856zm-139.325-76.978c-.466 0-.911.185-1.24.513s-.514.772-.515 1.236v72.312c.001.464.186.909.515 1.237s.774.513 1.24.513h139.325c.466 0 .911-.185 1.24-.513s.514-.773.515-1.237v-72.312c-.001-.464-.186-.908-.515-1.236s-.774-.513-1.24-.513z" fill="#172844"/><path d="m380.789 174.133c6.578 0 11.91-5.319 11.91-11.88s-5.332-11.88-11.91-11.88c-6.577 0-11.909 5.319-11.909 11.88s5.332 11.88 11.909 11.88z" fill="#e50047"/><path d="m408.295 154.333c-.261 0-.52.051-.761.15s-.46.245-.645.429-.331.402-.431.643c-.1.24-.152.498-.152.758 0 .261.052.518.152.759.1.24.246.459.431.643.185.183.404.329.645.429.241.099.5.15.761.149h75.021c.527 0 1.032-.208 1.404-.58.372-.371.581-.875.581-1.4s-.209-1.029-.581-1.4-.877-.58-1.404-.58zm0 11.88c-.261 0-.52.051-.761.15s-.46.245-.645.429-.331.402-.431.643c-.1.24-.152.498-.152.758s.052.518.152.759c.1.24.246.459.431.642.185.184.404.33.645.429.241.1.5.151.761.15h40.266c.526 0 1.031-.209 1.403-.58.373-.371.582-.875.582-1.4s-.209-1.029-.582-1.4c-.372-.371-.877-.58-1.403-.58zm-36.641 18.992c-1.509 0-2.738.889-2.738 1.98 0 1.092 1.229 1.98 2.738 1.98h110.552c1.51 0 2.738-.888 2.738-1.98 0-1.091-1.228-1.98-2.738-1.98zm0 11.88c-1.509 0-2.738.889-2.738 1.98 0 1.092 1.229 1.98 2.738 1.98h110.552c1.51 0 2.738-.888 2.738-1.98 0-1.091-1.228-1.98-2.738-1.98z" fill="#eaeaea"/><path d="m346.228 271.23c7.86-3.401 16.636-.436 24.044 2.699 3.816 1.614 7.591 3.337 11.54 4.612 3.322 1.07 6.724 1.874 10.173 2.405 6.924 1.058 13.964 1.101 20.9.128 6.971-.97 13.764-2.94 20.169-5.85 6.369-2.88 12.257-6.719 17.456-11.384.661-.596 1.31-1.206 1.946-1.829.756-.739-.406-1.898-1.162-1.159-5.007 4.868-10.754 8.915-17.029 11.991-6.249 3.065-12.915 5.201-19.784 6.34-6.893 1.159-13.92 1.28-20.848.359-3.457-.466-6.87-1.206-10.208-2.214-3.834-1.244-7.596-2.701-11.267-4.364-7.478-3.204-15.786-6.341-24.003-4.131-.941.259-1.863.588-2.756.982-.968.418-.132 1.831.829 1.415z" fill="#172844"/><path d="m343.191 291.331h-65.825l15.491-26.764c.278-.48.677-.878 1.158-1.155s1.026-.423 1.582-.423c.555 0 1.1.146 1.581.423s.881.675 1.158 1.155l6.618 11.433 11.252-19.44c.347-.6.847-1.099 1.449-1.446s1.285-.529 1.98-.529c.696 0 1.379.182 1.981.529s1.102.846 1.449 1.446z" fill="#e50047"/><path d="m343.253 291.324h-70.169c-.775-.001-1.518-.309-2.066-.855-.548-.547-.857-1.288-.858-2.061v-39.066c.001-.773.31-1.514.858-2.061.548-.546 1.291-.854 2.066-.855h70.169c.775.001 1.518.309 2.066.855.549.547.857 1.288.858 2.061v39.066c-.001.773-.309 1.514-.858 2.061-.548.546-1.291.854-2.066.855zm-70.169-43.731c-.465 0-.911.185-1.24.513s-.514.773-.514 1.236v39.066c0 .464.185.908.514 1.236s.775.513 1.24.513h70.169c.465 0 .911-.185 1.24-.513s.514-.772.514-1.236v-39.066c0-.463-.185-.908-.514-1.236s-.775-.513-1.24-.513z" fill="#172844"/><path d="m480.881 256.943-12.508 6.335c-4.464 2.261-8.772 1.875-10.422-2.841-.393-1.122-.538-2.315-.425-3.498.112-1.183.48-2.328 1.077-3.356.598-1.029 1.411-1.916 2.384-2.602s2.083-1.154 3.254-1.372l11.888-2.213 50.91-16.849 30.84-21.813 11.305 17.966-35.634 19.181zm58.385 210.289-9.57-1.591 1.064-18.03h10.101zm92.877-17.61-9.261 2.882-7.197-16.573 9.016-4.541z" fill="#ffb8b8"/><path d="m626.986 433.823-11.696 4.773-55.822-73.182-17.544 85.909-11.696-2.121c-7.502-74.065-13.62-149.61-6.113-185.34l43.328-1.856 19.67 62.575 9.569 42.424zm-88.246 47.991c-1.75.374-3.574.181-5.206-.552l-5.684-2.551c-4.767-.244-8.012.703-10.666-2.752-.749-.988-1.219-2.157-1.362-3.387s.047-2.475.55-3.607c.498-1.136 1.29-2.12 2.295-2.849 1.005-.73 2.187-1.179 3.424-1.302l7.808-4.908.41 3.679c3.568 2.017 7.805 1.145 12.295-.818l2.45 8.556c.316 1.103.402 2.259.251 3.397-.15 1.137-.534 2.232-1.126 3.216-.592.983-1.38 1.835-2.316 2.502s-1.999 1.136-3.123 1.376zm97.192-17.55c-1.533.921-3.321 1.328-5.103 1.164l-6.207-.572c-4.588 1.313-7.349 3.26-10.984.852-1.03-.691-1.855-1.645-2.39-2.762-.536-1.117-.762-2.356-.655-3.59.102-1.236.531-2.422 1.244-3.438.713-1.015 1.684-1.823 2.814-2.341l5.787-7.17 1.586 3.347c4.031.751 7.755-1.445 11.362-4.756l5.103 7.298c.658.941 1.115 2.007 1.343 3.132.228 1.124.222 2.283-.018 3.406-.239 1.122-.708 2.183-1.375 3.117-.668.934-1.521 1.721-2.507 2.313z" fill="#172844"/><path d="m551.494 186.703c10.57 0 19.138-8.547 19.138-19.091 0-10.543-8.568-19.091-19.138-19.091s-19.139 8.548-19.139 19.091c0 10.544 8.569 19.091 19.139 19.091z" fill="#ffb8b8"/><path d="m574.885 207.915-24.987-5.303-3.189-20.682 17.544-3.712z" fill="#ffb8b8"/><path d="m567.974 264.657h-44.657l10.066-25.208c-.731-8.674 2.954-15.054 8.229-20.608l6.692-16.759c10.813-7.099 18.964-6.569 27.645 2.651 10.292 14.536 3.168 36.386-7.975 59.924z" fill="#e50047"/><path d="m547.772 318.218-1.27 13.935c-.453 4.973-3.072 8.408-7.952 7.295-1.162-.265-2.252-.777-3.197-1.501s-1.721-1.643-2.277-2.695c-.555-1.051-.877-2.21-.942-3.396-.065-1.187.128-2.374.566-3.479l4.44-11.22 12.759-51.97-2.127-37.651h21.266l-2.659 40.303z" fill="#ffb8b8"/><path d="m570.632 228.597h-24.455l1.715-15.913c.112-2.753 1.252-5.363 3.196-7.32s4.551-3.118 7.309-3.255c1.461-.073 2.923.144 4.3.638 1.376.494 2.641 1.256 3.721 2.241s1.953 2.174 2.569 3.498.963 2.757 1.02 4.215z" fill="#e50047"/><g fill="#172844"><path d="m575.181 147.982c3.973 0 7.193-3.212 7.193-7.175s-3.22-7.176-7.193-7.176-7.194 3.213-7.194 7.176 3.221 7.175 7.194 7.175z"/><path d="m567.768 139.05c.118-1.821.928-3.528 2.264-4.774s3.098-1.937 4.927-1.933c-.149-.019-.296-.041-.448-.051-1.903-.121-3.777.517-5.208 1.773-1.432 1.257-2.306 3.029-2.428 4.928-.122 1.898.516 3.767 1.775 5.197 1.259 1.429 3.035 2.301 4.938 2.424.152.009.301.006.45.006-1.814-.229-3.473-1.14-4.638-2.546-1.165-1.407-1.748-3.203-1.632-5.024z"/><path d="m567.728 142.114c-6.416-5.309-24.818 1.439-26.005 5.008-8.676 1.179-15.245 6.228-15.245 15.206 5.158 2.108 11.024 1.848 17.366 0 10.109 8.217 10.802 18.548 4.654 30.413l7.563.151 9.375-13.668.448 13.863 17.337-.346v-19.868c.056-6.605-1.468-13.129-4.446-19.029-2.701-5.236-6.894-8.293-11.047-11.73z"/></g><path d="m551.583 177.215c1.9 0 3.441-2.15 3.441-4.804 0-2.653-1.541-4.804-3.441-4.804-1.899 0-3.44 2.151-3.44 4.804 0 2.654 1.541 4.804 3.44 4.804z" fill="#ffb8b8"/><path d="m118.743 178.507s2.07-35.752 12.821-27.628c10.75 8.124-4.695 30.944-4.695 30.944zm-39.997 106.052s23.881 26.742 10.52 28.58c-13.36 1.838-18.616-25.193-18.616-25.193z" fill="#ffb9b9"/><path d="m47.584 157.977c2.998.787 5.695 2.439 7.754 4.75s3.387 5.177 3.818 8.238l7.596 53.931 10.649 43.02s5.324 4.78 3.195 7.435c-2.13 2.656 2.662 13.809 2.662 13.809l-13.311 4.249s-1.597-11.153-4.26-11.685c-2.34-.466-28.53-70.255-34.843-87.162-.87-2.331-1.363-3.657-1.363-3.657s1.065-35.584 18.103-32.928z" fill="#172844"/><path d="m50.016 439.22 8.176 14.452c6.331 13.484.705 15.933-14.82 9.249l-3.538-17.065z" fill="#ffb9b9"/><path d="m54.141 458.428s3.881-6.303 5.285-5.248 7.194 5.627 7.194 5.627l7.542 7.205s25.48 2.687 9.29 11.593c-16.191 8.906-25.14 1.522-25.14 1.522s-22.676 1.176-22.31-5.135c.365-6.311 7.679-16.296 7.679-16.296s9.217 6.164 10.46.732z" fill="#172844"/><path d="m13.735 275.855 7.665 92.514s.255 55.304 8.431 66.008 8.432 16.056 8.432 16.056l16.863-8.665s-8.687-14.439-6.899-16.649c1.103-1.402 1.887-3.026 2.3-4.759l-4.6-57.088 8.688-99.395z" fill="#e50047"/><path d="m34.685 439.22-7.153 18.859-16.225-6.766 8.56-14.132z" fill="#ffb9b9"/><path d="m22.75 451.727s6.086-3.794 6.846-2.276c.761 1.517 3.804 7.966 3.804 7.966l3.422 9.484s20.917 13.278 3.043 14.036c-17.875.759-22.438-9.484-22.438-9.484s-20.157-8.725-17.114-14.036c3.042-5.311 13.69-10.819 13.69-10.819s5.325 9.302 8.748 5.129z" fill="#172844"/><path d="m78.632 276.11 4.088 85.123s-37.303 76.967-41.391 79.006c-1.218.628-2.298 1.492-3.176 2.543-.877 1.05-1.535 2.265-1.934 3.574l-22.484-5.607 10.22-16.311 22.484-54.54s3.577-1.529 4.599-6.626c1.022-5.098 3.066-5.098-2.044-6.117s-5.11-6.117-5.11-6.117l-16.864-77.477 51.61 2.549z" fill="#e50047"/><path d="m80.412 125.441c1.808-11.115-5.76-21.588-16.902-23.391-11.143-1.804-21.642 5.744-23.45 16.859s5.759 21.588 16.902 23.392c11.143 1.803 21.641-5.745 23.45-16.86z" fill="#ffb9b9"/><path d="m42.095 123.449s-1.533 25.996-3.577 28.545c-2.044 2.548 21.462 2.038 21.462 2.038s-1.533-21.917 0-23.956-17.885-6.627-17.885-6.627z" fill="#ffb9b9"/><path d="m80.163 281.717s-57.743-5.096-68.471 0c0 0 3.95-14.614 2.929-16.141-.743-1.117 1.305-42.746.662-66.759-.364-13.551-3.498-26.784 5.613-36.844 3.101-3.417 6.56-6.286 10.211-7.687 0 0-1.02-9.684 4.089-10.192 0 0 19.422-2.043 26.572 4.078 2.286 1.943 3.724 7.866 3.876 12.968-3.538 17.358-2.286 36.619.961 56.601.199 1.269.418 2.544.636 3.82 3.446 19.816 8.654 40.248 12.922 60.156zm-30.605-153.534c1.728-.103 3.416.48 5.133.707 6.141.813 12.53-3.632 13.886-9.662.11-.803.349-1.583.71-2.309.946-1.539 3.098-1.832 4.873-1.479 1.775.354 3.457 1.183 5.264 1.278 2.79.146 5.47-1.568 6.956-3.928 1.406-2.434 2.003-5.249 1.708-8.043l-1.338 1.4c-.543-1.147-.753-2.423-.606-3.683-.709-.188-1.454-.192-2.165-.011-.71.182-1.362.542-1.894 1.047-1.179.125-.289-2.182-1.165-2.98-.426-.261-.934-.356-1.426-.266-2.51.024-4.54-1.89-6.517-3.431-3.426-2.665-7.432-4.488-11.695-5.322-2.834-.551-5.847-.64-8.534.413-2.17.971-4.127 2.356-5.763 4.077-4.207 4.036-7.932 8.777-9.683 14.331-1.422 4.549-1.463 9.416-.115 13.988.705 2.374 2.83 10.506 5.942 10.695 3.91.238 1.562-6.533 6.429-6.822z" fill="#172844"/><path d="m58.018 160.479 7.323.783s7.189 13.911 6.666 16.813c-.522 2.902-1.658 1.14 1.577 5.783 3.236 4.642 12.416 16.642 13.553 18.404 1.137 1.761 32.131-21.827 30.204-28.895 0 0 9.789 7.005 13.983 7.938 0 0-31.942 41.786-36.393 47.133-4.451 5.348-8.034 4.25-14.15 1.079-6.118-3.171-37.064-34.797-37.064-34.797z" fill="#172844"/><path d="m67.241 221.561-25.451-25.388 6.441-2.096 18.375 23.664c.199 1.269.418 2.544.636 3.82z" fill="#172844" opacity=".1"/></g></svg>