<svg xmlns="http://www.w3.org/2000/svg" width="32" height="32" fill="none" viewBox="0 0 32 32">
    <path fill="#fff" fill-rule="evenodd" d="M16 32c8.837 0 16-7.163 16-16S24.837 0 16 0 0 7.163 0 16s7.163 16 16 16zM8 9.865C8 8.806 8.803 8 10.03 8c1.228 0 1.983.806 2.006 1.865 0 1.036-.778 1.865-2.03 1.865h-.023C8.779 11.73 8 10.901 8 9.865zm.212 3.34H11.8V24H8.212V13.204zm9.162 1.565s1.298-1.819 3.234-1.819c2.36 0 4.131 1.543 4.131 4.86V24h-3.588v-5.776c0-1.452-.52-2.442-1.818-2.442-.99 0-1.581.668-1.84 1.313-.095.23-.119.553-.119.875v6.03h-3.588V13.203h3.588v1.566z" clip-rule="evenodd"/>
</svg>
