<svg xmlns="http://www.w3.org/2000/svg" width="16" height="16" fill="none" viewBox="0 0 16 16">
    <path fill="#172844" d="M8 0C3.6 0 0 3.6 0 8s3.6 8 8 8 8-3.6 8-8-3.6-8-8-8zm5.52 4.8H11.2c-.24-1.04-.64-1.92-1.12-2.88 1.44.56 2.72 1.52 3.44 2.88zM8 1.6c.64.96 1.2 2 1.52 3.2H6.48C6.8 3.68 7.36 2.56 8 1.6zm-6.16 8C1.68 9.12 1.6 8.56 1.6 8s.08-1.12.24-1.6h2.72c-.08.56-.08 1.04-.08 1.6s.08 1.04.08 1.6H1.84zm.64 1.6H4.8c.24 1.04.64 1.92 1.12 2.88-1.44-.56-2.72-1.52-3.44-2.88zM4.8 4.8H2.48c.8-1.36 2-2.32 3.44-2.88-.48.96-.88 1.84-1.12 2.88zM8 14.4c-.64-.96-1.2-2-1.52-3.2h3.04c-.32 1.12-.88 2.24-1.52 3.2zm1.84-4.8H6.16C6.08 9.04 6 8.56 6 8s.08-1.04.16-1.6h3.76c.08.56.16 1.04.16 1.6s-.16 1.04-.24 1.6zm.24 4.48c.48-.88.88-1.84 1.12-2.88h2.32c-.72 1.36-2 2.32-3.44 2.88zm1.44-4.48c.08-.56.08-1.04.08-1.6s-.08-1.04-.08-1.6h2.72c.16.48.24 1.04.24 1.6s-.08 1.12-.24 1.6h-2.72z"/>
</svg>
