<svg xmlns="http://www.w3.org/2000/svg" width="32" height="32" fill="none" viewBox="0 0 32 32">
    <path fill="#fff" fill-rule="evenodd" d="M16 32c8.837 0 16-7.163 16-16S24.837 0 16 0 0 7.163 0 16s7.163 16 16 16zm-4.178-10.782c.808 0 1.463-1 1.463-2.233 0-1.234-.655-2.234-1.463-2.234-.81 0-1.465 1-1.465 2.233s.655 2.234 1.465 2.234zm5.784-2.233c0-1.234.655-2.234 1.465-2.234.808 0 1.463 1 1.463 2.234 0 1.233-.655 2.233-1.463 2.233-.81 0-1.465-1-1.465-2.233zM17.662 24c5.326 0 7.339-3.204 7.339-7.157 0-1.624-.553-3.12-1.488-4.32.644-2.36-.043-3.955-.272-4.397v-.002c-.006-.008-.01-.017-.015-.025l-.009-.017-.001-.002-.011-.02-.021-.037-.001-.002-.01-.014L23.168 8c-1.625-.019-3.082.94-4.073 1.822-.462-.09-.942-.137-1.434-.137H13.34c-.474 0-.936.044-1.384.127-.992-.88-2.442-1.832-4.064-1.813 0 0-1.09 1.7-.358 4.464C6.573 13.674 6 15.194 6 16.843 6 20.796 7.83 24 13.339 24h4.323zm1.762-8.481c2.067-.117 2.808 1.43 3.076 3.353.268 1.92-1.03 3.742-3.41 3.877-2.398.139-4.803.139-7.2 0-2.38-.134-3.57-1.956-3.301-3.877.266-1.926 1.008-3.397 3.074-3.28.383.021.813.08 1.273.143.716.098 1.504.205 2.29.198.906-.008 1.815-.13 2.645-.241.562-.076 1.088-.146 1.553-.173z" clip-rule="evenodd"/>
</svg>
