<svg width="32" height="32" viewBox="0 0 32 32" fill="none" xmlns="http://www.w3.org/2000/svg">
<path d="M16 0C24.8366 0 32 7.16344 32 16C32 24.8366 24.8366 32 16 32C7.16344 32 0 24.8366 0 16C0 7.16344 7.16344 0 16 0ZM23.7334 10.8184C23.7334 8.4757 21.6603 9.2116 20.3809 10.1631C18.6077 11.4816 16.7005 14.155 16 15.5898C15.3434 14.2446 13.6261 11.8112 11.9531 10.4258L11.6191 10.1631C10.3397 9.21159 8.2666 8.47568 8.2666 10.8184C8.26673 11.2875 8.5375 14.7485 8.69629 15.3105C9.24834 17.2647 11.2603 17.7636 13.0498 17.4619C9.92175 17.9892 9.12622 19.7356 10.8447 21.4824C14.1084 24.7995 15.5356 20.6504 15.9014 19.5869C15.9684 19.3921 15.9995 19.3007 16 19.3779C16.0005 19.3007 16.0316 19.3921 16.0986 19.5869C16.4646 20.6505 17.8918 24.7994 21.1553 21.4824C22.8738 19.7356 22.0782 17.9893 18.9502 17.4619C20.7397 17.7636 22.7516 17.2648 23.3037 15.3105C23.4625 14.7486 23.7333 11.2876 23.7334 10.8184Z" fill="white"/>
</svg>
