<svg fill="none" height="88" viewBox="0 0 256 88" width="256" xmlns="http://www.w3.org/2000/svg"><path d="m0 40.152h9.575l5.684 18.853 6.284-18.913h7.78l6.282 18.913 5.685-18.853h9.395l-10.95 32.814h-7.78l-6.582-18.734-6.523 18.734h-7.9zm61.397-.239h8.737l13.883 32.814h-9.694l-2.394-5.847h-12.567l-2.334 5.847h-9.514zm7.959 19.987-3.65-9.248-3.71 9.248zm21.662-11.813h-9.814v-7.935h28.664v7.935h-9.814v24.64h-9.036zm20.286 8.472v-.12c0-9.486 7.301-16.943 17.235-16.943 6.702 0 10.95 2.804 13.883 6.801l-6.822 5.25c-1.855-2.327-4.01-3.818-7.121-3.818-4.548 0-7.78 3.878-7.78 8.591v.12c0 4.892 3.232 8.71 7.78 8.71 3.411 0 5.385-1.611 7.36-3.938l6.822 4.833c-3.052 4.236-7.241 7.338-14.482 7.338-9.335 0-16.875-7.1-16.875-16.824zm35.187-16.407h9.096v12.17h11.609v-12.17h9.036v32.575h-9.036v-12.35h-11.609v12.35h-9.036v-32.575z" fill="#e50047"/><g fill="#fff"><path d="m36.204 28.458c-3.172-3.162-4.907-7.338-4.907-11.753 0-4.474 1.735-8.65 4.907-11.813 3.112-3.162 7.3-4.892 11.788-4.892 4.489 0 8.678 1.73 11.85 4.892 3.17 3.162 4.906 7.338 4.906 11.813s-1.735 8.65-4.907 11.753c-3.172 3.162-7.36 4.892-11.849 4.892-4.488 0-8.676-1.73-11.788-4.892zm-1.377-11.813c0 7.28 5.925 13.126 13.166 13.126 7.3 0 13.165-5.907 13.165-13.126 0-7.278-5.925-13.125-13.166-13.125-7.24 0-13.164 5.906-13.164 13.125zm-34.827-16.287h14.003c8.258 0 13.584 4.236 13.584 11.455v.12c0 7.696-5.924 11.753-14.063 11.753h-4.488v9.307h-9.036zm13.345 16.228c3.231 0 5.206-1.67 5.206-4.236v-.12c0-2.803-1.975-4.295-5.206-4.295h-4.25v8.591h4.25zm55.652-15.632h9.036v24.64h15.797v7.935h-24.893v-32.575zm28.963 0h9.096v32.576h-9.096zm23.637 7.876h-9.814v-7.877h28.664v7.937h-9.814v24.64h-9.036zm23.637-7.876h9.096v32.576h-9.096zm13.943 16.346v-.119c0-9.486 7.301-16.943 17.234-16.943 6.703 0 10.951 2.804 13.884 6.801l-6.822 5.25c-1.855-2.326-4.01-3.818-7.121-3.818-4.548 0-7.78 3.878-7.78 8.591v.12c0 4.892 3.232 8.71 7.78 8.71 3.411 0 5.385-1.61 7.36-3.938l6.822 4.833c-3.052 4.236-7.241 7.338-14.482 7.338-9.395.06-16.875-7.1-16.875-16.824zm46.198-16.584h8.736l13.883 32.814h-9.694l-2.393-5.847h-12.627l-2.334 5.847h-9.455zm7.958 19.987-3.65-9.248-3.71 9.248zm17.833-19.749h9.036v24.64h15.798v7.935h-24.894v-32.575z"/><path clip-rule="evenodd" d="m48.052 5.608c-6.103 0-11.07 4.952-11.07 11.038 0 6.085 4.967 11.037 11.07 11.037 6.104 0 11.071-4.952 11.071-11.037 0-6.086-4.967-11.038-11.07-11.038zm7.301 11.933c.3.06.479.358.419.715-.06.18-.06.358-.12.538-.957 3.34-4.01 5.667-7.54 5.667-1.077 0-2.154-.238-3.111-.656-.06-.06-.12-.06-.18-.12-.24-.178-.24-.477-.12-.715.18-.299.479-.358.778-.239 2.334.955 4.608.656 6.643-.776 1.376-.954 2.154-2.326 2.513-3.937.12-.418.359-.597.718-.477zm-11.01 1.73c1.076 1.491 2.572 2.148 4.427 1.85 2.454-.359 4.13-2.745 3.71-5.191-.478-2.685-3.111-4.355-5.684-3.58-.42.12-.838.358-1.197.537-.3.12-.598.06-.778-.179s-.06-.597.18-.776c.06-.06.12-.06.179-.119 2.693-1.67 6.283-.656 7.84 2.088 1.555 2.864.478 6.324-2.454 7.756-1.496.716-3.052.776-4.608.18-.778-.3-1.436-.776-1.975-1.373-.478-.477-.838-1.074-1.077-1.73-.3-.657-.419-1.372-.419-2.029 0-1.074.24-2.028.778-2.923.18-.358.658-.358.958-.06.18.18.18.418 0 .716-.958 1.67-.958 3.282.12 4.833zm3.41-5.489c-.18-.179-.419-.298-.718-.418.06-.06.12-.06.18-.119.478-.12.957-.12 1.436-.06.778.12 1.436.478 1.915 1.074.538.597.837 1.253.897 2.029.06.954-.18 1.79-.778 2.506-.837.954-1.855 1.372-3.171 1.252-.838-.119-1.556-.477-2.154-1.073-.599-.657-.898-1.373-.898-2.268 0-.656.12-1.193.419-1.79 0-.06.06-.119.06-.06.06 0 .06.06.06.12 0 .716.658 1.372 1.376 1.432.658.06 1.316-.298 1.616-.954.418-.478.239-1.253-.24-1.671zm4.07-4.057c.358.179.658.418 1.017.656.299.18.538.418.837.656.18.18.24.358.12.597-.06.239-.24.358-.479.358s-.359-.06-.538-.239c-1.795-1.67-3.89-2.267-6.284-1.67-2.872.656-5.026 3.281-5.086 6.264 0 1.194.24 2.387.838 3.46.18.299.06.657-.24.776-.299.12-.598.06-.778-.298-.179-.298-.299-.656-.478-1.014-.36-.895-.479-1.79-.479-2.745v-.179c.12-2.565 1.197-4.653 3.231-6.145 1.796-1.312 3.83-1.73 6.044-1.312.838.179 1.556.417 2.274.835zm-13.107 9.725c-.24 0-.478-.18-.538-.477-.18-.836-.3-1.671-.3-2.506.06-.478.06-.895.12-1.372.479-2.924 1.915-5.191 4.368-6.862 1.676-1.133 3.531-1.67 5.566-1.73.359 0 .598.239.598.597s-.24.537-.598.537c-.36 0-.718 0-1.077.06-1.796.238-3.352.894-4.728 2.088-2.453 2.147-3.47 4.892-3.052 8.173.06.239.12.478.12.716.18.477-.12.776-.479.776zm9.814 7.338c-2.393 0-4.129-.477-5.685-1.432-1.077-.656-2.034-1.491-2.812-2.446-.24-.298-.18-.656.06-.835.239-.18.598-.12.837.12.479.655 1.018 1.192 1.676 1.67 2.035 1.55 4.368 2.148 6.882 1.73 3.171-.597 5.445-2.387 6.762-5.31.478-1.014.718-2.088.778-3.162.12-1.91-.36-3.699-1.437-5.37-.239-.357-.12-.656.18-.835.24-.179.598-.06.778.239.419.597.718 1.253.957 1.909.958 2.685.898 5.43-.359 7.995-1.855 3.699-5.026 5.548-8.617 5.727z" fill-rule="evenodd"/><path d="m0 80.721c0-.12.06-.179.18-.179h4.188c.12 0 .18.12.18.179v.597c0 .119-.06.179-.18.179h-3.29v2.386h2.812c.12 0 .18.12.18.179v.597c0 .119-.12.179-.18.179h-2.813v2.744c0 .12-.12.179-.18.179h-.717c-.12 0-.18-.12-.18-.179zm5.805.001c0-.12.12-.18.18-.18h.717c.12 0 .18.12.18.18v4.295c0 1.014.658 1.85 1.735 1.85s1.735-.776 1.735-1.85v-4.295c0-.12.06-.18.18-.18h.718c.12 0 .18.12.18.18v4.355c0 1.61-1.197 2.804-2.873 2.804-1.615 0-2.812-1.253-2.812-2.804v-4.355zm7.599-.12c0-.119.12-.179.18-.179h.24l4.547 5.25v-4.892c0-.119.06-.179.18-.179h.658c.12 0 .18.12.18.18v6.92c0 .12-.12.179-.18.179h-.3l-4.547-5.37v5.072c0 .119-.06.179-.18.179h-.658c-.12 0-.18-.12-.18-.18v-6.98zm8.139.12c0-.12.06-.18.18-.18h2.393c2.035 0 3.65 1.611 3.65 3.64 0 2.028-1.675 3.64-3.65 3.64h-2.394c-.12 0-.18-.12-.18-.18v-6.92zm2.393 6.085c1.556 0 2.633-1.134 2.633-2.685s-1.137-2.625-2.633-2.625h-1.376v5.31zm4.309.716 3.231-6.98c.06-.06.12-.12.18-.12h.06c.06 0 .12.06.18.12l3.17 6.98c.06.12 0 .298-.179.298h-.658c-.12 0-.18-.06-.24-.179l-.658-1.431h-3.41c-.18.477-.42.954-.659 1.431-.06.06-.12.18-.24.18h-.657c-.12 0-.18-.12-.12-.299zm4.727-2.207-1.256-2.864h-.06l-1.257 2.864zm6.344-4.893c1.077 0 1.795.358 2.513.955.12.06.12.179 0 .298l-.479.477c-.06.12-.18.12-.24 0-.478-.417-1.136-.715-1.794-.715-1.497 0-2.634 1.252-2.634 2.684s1.137 2.685 2.633 2.685c.779 0 1.317-.298 1.796-.716.12-.06.18-.06.24 0l.478.477c.06.06.06.18 0 .299-.718.716-1.616 1.014-2.514 1.014-2.094 0-3.77-1.67-3.77-3.759 0-2.028 1.676-3.699 3.77-3.699zm4.069.299c0-.12.12-.18.18-.18h.717c.12 0 .18.12.18.18v6.86c0 .12-.12.18-.18.18h-.718c-.12 0-.18-.12-.18-.18v-6.86zm6.283-.299c2.095 0 3.77 1.67 3.77 3.759 0 2.088-1.675 3.759-3.77 3.759-2.094 0-3.77-1.67-3.77-3.759.06-2.088 1.676-3.759 3.77-3.759zm0 6.444c1.496 0 2.693-1.194 2.693-2.685 0-1.492-1.197-2.745-2.693-2.745s-2.693 1.253-2.693 2.745 1.257 2.685 2.693 2.685zm-.957-7.16-.12-.298c-.06-.06 0-.179.06-.179l1.615-.955c.06-.06.24-.06.3.06l.239.478c.06.119 0 .178-.06.238l-1.735.776c-.18 0-.24 0-.3-.12zm6.223.895c0-.119.12-.179.18-.179h.239l4.548 5.25v-4.892c0-.119.06-.179.18-.179h.658c.12 0 .18.12.18.18v6.92c0 .12-.12.179-.18.179h-.3l-4.547-5.37v5.072c0 .119-.06.179-.18.179h-.658c-.12 0-.18-.12-.18-.18v-6.98zm9.934 6.145c.12-.119.18-.298.299-.417.12-.12.24-.18.359-.06.06.06.838.716 1.675.716.719 0 1.197-.418 1.197-.955 0-.596-.538-1.014-1.555-1.431-1.078-.478-1.915-1.015-1.915-2.208 0-.835.598-1.91 2.273-1.91 1.018 0 1.856.538 1.915.597.06.06.18.18.06.359-.06.119-.18.298-.24.417-.059.12-.238.18-.358.12-.06-.06-.778-.537-1.436-.537-.898 0-1.197.536-1.197.954 0 .597.479.955 1.316 1.313 1.197.477 2.215 1.073 2.215 2.326 0 1.074-.958 1.97-2.334 1.97-1.257 0-2.095-.657-2.214-.836-.12-.179-.18-.239-.06-.418zm5.086.776 3.232-6.98c.06-.06.12-.12.18-.12h.119c.06 0 .12.06.18.12l3.17 6.98c.06.12 0 .298-.179.298h-.658c-.12 0-.18-.06-.24-.179l-.657-1.431h-3.411c-.18.477-.42.954-.659 1.431-.06.06-.12.18-.239.18h-.658c-.18 0-.24-.12-.18-.299zm4.728-2.207-1.257-2.864h-.06l-1.256 2.864zm3.171-4.594c0-.12.06-.18.18-.18h.718c.12 0 .18.12.18.18v6.145h2.812c.12 0 .18.119.18.178v.597c0 .12-.06.18-.18.18h-3.71c-.12 0-.18-.12-.18-.18zm3.351.059c-.06-.12 0-.298.18-.298h.718c.06 0 .18.06.18.12l2.273 5.13h.06l2.274-5.13c0-.06.06-.12.18-.12h.718c.18 0 .24.12.18.298l-3.232 6.98c-.06.06-.12.12-.18.12h-.12c-.06 0-.12-.06-.179-.12zm6.463 6.742 3.232-6.98c.06-.06.12-.12.18-.12h.119c.06 0 .12.06.18.12l3.17 6.98c.06.12 0 .298-.179.298h-.658c-.12 0-.18-.06-.24-.179l-.657-1.431h-3.411c-.18.477-.42.954-.659 1.431-.06.06-.12.18-.24.18h-.657c-.12 0-.24-.12-.18-.299zm4.728-2.207-1.257-2.864h-.06l-1.257 2.864zm3.171-4.594c0-.12.06-.18.18-.18h2.393c2.035 0 3.651 1.611 3.651 3.64 0 2.028-1.676 3.64-3.65 3.64h-2.394c-.12 0-.18-.12-.18-.18zm2.454 6.085c1.556 0 2.633-1.134 2.633-2.685s-1.137-2.625-2.633-2.625h-1.377v5.31zm8.557-6.384c2.094 0 3.77 1.67 3.77 3.759 0 2.088-1.676 3.759-3.77 3.759s-3.77-1.67-3.77-3.759c0-2.088 1.676-3.759 3.77-3.759zm0 6.444c1.496 0 2.693-1.194 2.693-2.685 0-1.492-1.197-2.744-2.693-2.744s-2.693 1.252-2.693 2.744c-.06 1.492 1.197 2.685 2.693 2.685zm5.206-6.145c0-.12.06-.18.18-.18h2.812c1.257 0 2.274 1.015 2.274 2.208 0 .954-.658 1.73-1.556 2.088l1.436 2.625c.06.12 0 .299-.179.299h-.838c-.06 0-.12-.06-.179-.12l-1.377-2.744h-1.556v2.625c0 .12-.119.179-.179.179h-.658c-.12 0-.18-.12-.18-.18zm2.992 3.34c.658 0 1.257-.596 1.257-1.312 0-.656-.599-1.253-1.257-1.253h-1.855v2.506h1.855v.06zm5.805 2.685c.119-.119.179-.298.299-.417.12-.12.239-.18.359-.06.06.06.838.716 1.676.716.718 0 1.196-.418 1.196-.955 0-.596-.538-1.014-1.556-1.431-1.077-.478-1.914-1.015-1.914-2.208 0-.835.598-1.91 2.274-1.91 1.017 0 1.855.538 1.914.597.06.06.18.18.06.359-.06.119-.179.298-.239.417-.06.12-.239.18-.359.12-.06-.06-.778-.537-1.436-.537-.898 0-1.197.536-1.197.954 0 .597.479.955 1.316 1.313 1.197.477 2.274 1.073 2.274 2.326 0 1.074-.957 1.97-2.333 1.97-1.257 0-2.095-.657-2.215-.836-.179-.179-.239-.239-.119-.418zm9.275-6.324c2.095 0 3.77 1.67 3.77 3.759 0 2.088-1.675 3.759-3.77 3.759-2.094 0-3.77-1.67-3.77-3.759.06-2.088 1.676-3.759 3.77-3.759zm0 6.444c1.496 0 2.693-1.194 2.693-2.685 0-1.492-1.197-2.744-2.693-2.744s-2.693 1.252-2.693 2.744 1.197 2.685 2.693 2.685zm5.266-6.145c0-.12.06-.18.18-.18h.718c.119 0 .179.12.179.18v6.145h2.813c.119 0 .179.119.179.178v.597c0 .12-.06.18-.179.18h-3.71c-.12 0-.18-.12-.18-.18zm5.206 0c0-.12.06-.18.18-.18h4.189c.119 0 .179.12.179.18v.596c0 .12-.06.18-.179.18h-3.292v2.147h2.813c.12 0 .179.12.179.179v.596c0 .12-.119.18-.179.18h-2.813v2.267h3.292c.119 0 .179.119.179.178v.597c0 .12-.06.18-.179.18h-4.189c-.12 0-.18-.12-.18-.18zm6.164 0c0-.12.06-.18.179-.18h2.813c1.257 0 2.274 1.015 2.274 2.208 0 .954-.658 1.73-1.556 2.088l1.436 2.625c.06.12 0 .299-.179.299h-.838c-.06 0-.12-.06-.18-.12l-1.376-2.744h-1.556v2.625c0 .12-.119.179-.179.179h-.659c-.119 0-.179-.12-.179-.18zm2.932 3.34c.658 0 1.257-.596 1.257-1.312 0-.656-.599-1.253-1.257-1.253h-1.855v2.506h1.855v.06z"/></g></svg>