<svg width="300" viewBox="0 0 300 24" version="1.1" xmlns="http://www.w3.org/2000/svg" xmlns:xlink="http://www.w3.org/1999/xlink" xml:space="preserve" xmlns:serif="http://www.serif.com/" style="fill-rule:evenodd;clip-rule:evenodd;stroke-linejoin:round;stroke-miterlimit:2;">
    <g>
        <g transform="matrix(0.557517,0,0,0.557517,-84.6869,-129.498)">
            <path d="M470.3,233.5L482.2,233.5L489.3,257.1L497.2,233.4L506.9,233.4L514.8,257.1L521.9,233.5L533.6,233.5L520,274.5L510.2,274.5L502,251L493.9,274.5L484.1,274.5L470.5,233.5L470.3,233.5Z" style="fill:rgb(229,0,71);fill-rule:nonzero;"/>
        </g>
        <g transform="matrix(0.557517,0,0,0.557517,-84.6869,-129.498)">
            <path d="M546.8,233.2L557.8,233.2L575.1,274.2L563,274.2L560,266.9L544.3,266.9L541.4,274.2L529.5,274.2L546.8,233.2ZM556.8,258.2L552.3,246.6L547.7,258.2L556.8,258.2Z" style="fill:rgb(229,0,71);fill-rule:nonzero;"/>
        </g>
        <g transform="matrix(0.557517,0,0,0.557517,-84.6869,-129.498)">
            <path d="M583.8,243.4L571.6,243.4L571.6,233.5L607.3,233.5L607.3,243.4L595.1,243.4L595.1,274.2L583.8,274.2L583.8,243.4Z" style="fill:rgb(229,0,71);fill-rule:nonzero;"/>
        </g>
        <g transform="matrix(0.557517,0,0,0.557517,-84.6869,-129.498)">
            <path d="M609.1,254C609.1,242 618.2,232.7 630.6,232.7C643,232.7 644.3,236.2 647.9,241.2L639.4,247.8C637.1,244.9 634.4,243 630.5,243C624.8,243 620.8,247.8 620.8,253.8C620.8,260 624.8,264.8 630.5,264.8C636.2,264.8 637.3,262.8 639.7,259.9L648.2,266C644.4,271.3 639.2,275.2 630.2,275.2C621.2,275.2 609.2,266.3 609.2,254.1L609.1,254Z" style="fill:rgb(229,0,71);fill-rule:nonzero;"/>
        </g>
        <g transform="matrix(0.557517,0,0,0.557517,-84.6869,-129.498)">
            <path d="M652.9,233.5L664.2,233.5L664.2,248.7L678.7,248.7L678.7,233.5L690,233.5L690,274.2L678.7,274.2L678.7,258.7L664.2,258.7L664.2,274.2L652.9,274.2L652.9,233.5Z" style="fill:rgb(229,0,71);fill-rule:nonzero;"/>
        </g>
        <g transform="matrix(0.557517,0,0,0.557517,-84.6869,-129.498)">
            <path d="M151.9,232.8L169.4,232.8C179.7,232.8 186.3,238.1 186.3,247.1C186.3,256.8 178.9,261.9 168.8,261.9L163.2,261.9L163.2,273.5L151.9,273.5L151.9,232.8ZM168.5,253C172.5,253 175,250.9 175,247.7C175,244.1 172.6,242.2 168.5,242.2L163.2,242.2L163.2,253L168.6,253L168.5,253Z" style="fill:rgb(24,41,68);fill-rule:nonzero;"/>
        </g>
        <g transform="matrix(0.557517,0,0,0.557517,-84.6869,-129.498)">
            <path d="M237.9,233.5L249.2,233.5L249.2,264.3L268.9,264.3L268.9,274.2L237.9,274.2L237.9,233.5Z" style="fill:rgb(24,41,68);fill-rule:nonzero;"/>
        </g>
        <g transform="matrix(0.557517,0,0,0.557517,-84.6869,-129.498)">
            <rect x="274" y="233.5" width="11.3" height="40.7" style="fill:rgb(24,41,68);"/>
        </g>
        <g transform="matrix(0.557517,0,0,0.557517,-84.6869,-129.498)">
            <path d="M303.5,243.4L291.3,243.4L291.3,233.5L327,233.5L327,243.4L314.8,243.4L314.8,274.2L303.5,274.2L303.5,243.4Z" style="fill:rgb(24,41,68);fill-rule:nonzero;"/>
        </g>
        <g transform="matrix(0.557517,0,0,0.557517,-84.6869,-129.498)">
            <rect x="332.9" y="233.5" width="11.3" height="40.7" style="fill:rgb(24,41,68);"/>
        </g>
        <g transform="matrix(0.557517,0,0,0.557517,-84.6869,-129.498)">
            <path d="M350.3,254C350.3,242 359.4,232.7 371.8,232.7C384.2,232.7 385.5,236.2 389.1,241.2L380.6,247.8C378.3,244.9 375.6,243 371.7,243C366,243 362,247.8 362,253.8C362,260 366,264.8 371.7,264.8C377.4,264.8 378.5,262.8 380.9,259.9L389.4,266C385.6,271.3 380.4,275.2 371.4,275.2C362.4,275.2 350.4,266.3 350.4,254.1L350.3,254Z" style="fill:rgb(24,41,68);fill-rule:nonzero;"/>
        </g>
        <g transform="matrix(0.557517,0,0,0.557517,-84.6869,-129.498)">
            <path d="M407.8,233.2L418.8,233.2L436.1,274.2L424,274.2L421,266.9L405.3,266.9L402.4,274.2L390.5,274.2L407.8,233.2ZM417.8,258.2L413.3,246.6L408.7,258.2L417.8,258.2Z" style="fill:rgb(24,41,68);fill-rule:nonzero;"/>
        </g>
        <g transform="matrix(0.557517,0,0,0.557517,-84.6869,-129.498)">
            <path d="M440.1,233.5L451.4,233.5L451.4,264.3L471.1,264.3L471.1,274.2L440.1,274.2L440.1,233.5Z" style="fill:rgb(24,41,68);fill-rule:nonzero;"/>
        </g>
        <g transform="matrix(0.557517,0,0,0.557517,-84.6869,-129.498)">
            <path d="M197,267.9C193.1,264 190.9,258.7 190.9,253.2C190.9,247.7 193.1,242.4 197,238.5C200.9,234.6 206.2,232.4 211.7,232.4C217.2,232.4 222.5,234.6 226.4,238.5C230.3,242.4 232.5,247.7 232.5,253.2C232.5,258.7 230.3,264 226.4,267.9C222.5,271.8 217.2,274 211.7,274C206.2,274 200.9,271.8 197,267.9ZM198.9,253.1C198.9,260.2 204.7,266 211.8,266C218.9,266 224.7,260.2 224.7,253.1C224.7,246 218.9,240.2 211.8,240.2C204.7,240.2 198.9,246 198.9,253.1Z" style="fill:rgb(24,41,68);fill-rule:nonzero;"/>
        </g>
        <g transform="matrix(0.557517,0,0,0.557517,-84.6869,-129.498)">
            <path d="M209.7,246.6C210.3,246.7 210.7,247 211.1,247.4C212,248.3 212.4,249.8 211.8,250.9C211.2,252.2 209.8,252.9 208.5,252.8C207.1,252.6 205.8,251.3 205.7,249.9C205.7,249.9 205.7,249.7 205.6,249.7C205.6,249.7 205.5,249.8 205.4,249.9C204.8,251 204.5,252.2 204.5,253.5C204.5,255.2 205.2,256.8 206.3,258C207.4,259.3 208.9,260 210.6,260.2C213.1,260.5 215.3,259.6 216.9,257.7C218.1,256.3 218.6,254.5 218.4,252.6C218.3,251 217.7,249.7 216.6,248.5C215.6,247.4 214.3,246.6 212.7,246.4C211.7,246.2 210.8,246.2 209.8,246.4C209.7,246.4 209.5,246.4 209.4,246.6L209.7,246.6Z" style="fill:rgb(24,41,68);"/>
        </g>
    </g>
</svg>
