<svg xmlns="http://www.w3.org/2000/svg" width="16" height="16" fill="none" viewBox="0 0 16 16">
    <path fill="#E50047" d="M8 0C3.58 0 0 3.673 0 8.203c0 3.625 2.292 6.699 5.47 7.783.4.077.547-.177.547-.395 0-.194-.007-.71-.01-1.394-2.226.494-2.695-1.1-2.695-1.1-.364-.948-.89-1.2-.89-1.2-.725-.51.056-.499.056-.499.803.057 1.225.845 1.225.845.714 1.255 1.873.892 2.33.683.072-.531.278-.892.507-1.097-1.777-.206-3.644-.91-3.644-4.054 0-.895.31-1.627.823-2.2-.09-.208-.36-1.042.07-2.172 0 0 .67-.22 2.2.841.64-.182 1.32-.273 2-.277.68.004 1.36.095 2 .277 1.52-1.06 2.19-.84 2.19-.84.43 1.129.16 1.963.08 2.17.51.574.82 1.306.82 2.201 0 3.151-1.87 3.845-3.65 4.047.28.246.54.749.54 1.518 0 1.097-.01 1.98-.01 2.246 0 .215.14.472.55.39C13.71 14.898 16 11.821 16 8.202 16 3.673 12.418 0 8 0z"/>
</svg>
