<svg xmlns="http://www.w3.org/2000/svg" width="16" height="14" fill="none" viewBox="0 0 16 14">
    <path fill="#E50047" d="M14.356 3.491c.65-.497 1.198-1.118 1.644-1.833v-.001c-.595.28-1.229.467-1.89.558.68-.437 1.2-1.124 1.443-1.952-.634.407-1.334.694-2.08.855C12.871.428 12.013 0 11.077 0 9.261 0 7.8 1.587 7.8 3.533c0 .28.022.55.076.806C5.15 4.195 2.735 2.788 1.114.643c-.283.53-.45 1.135-.45 1.786 0 1.223.585 2.307 1.458 2.936-.527-.011-1.044-.176-1.482-.436v.04c0 1.716 1.137 3.142 2.628 3.47-.267.08-.558.117-.86.117-.21 0-.422-.013-.62-.06.424 1.398 1.63 2.427 3.064 2.46-1.116.94-2.533 1.507-4.067 1.507-.269 0-.527-.013-.785-.048C1.453 13.424 3.175 14 5.032 14c5.789 0 9.561-5.2 9.324-10.509z"/>
</svg>
