<svg xmlns="http://www.w3.org/2000/svg" width="16" height="16" fill="none" viewBox="0 0 16 16">
    <path fill="#172844" d="M0 16l1.12-3.976C.4 10.803.02 9.41.02 7.981.02 3.581 3.606 0 8.01 0 12.416 0 16 3.58 16 7.981c0 4.4-3.584 7.981-7.99 7.981-1.372 0-2.717-.35-3.906-1.017L0 16zm4.314-2.507l.245.149c1.036.632 2.23.966 3.451.966 3.659 0 6.635-2.973 6.635-6.627S11.669 1.354 8.01 1.354c-3.658 0-6.634 2.973-6.634 6.627 0 1.273.362 2.51 1.047 3.576l.165.256-.645 2.29 2.371-.61z"/>
    <path fill="#172844" d="M5.766 4.266l-.519-.028c-.162-.009-.322.046-.445.153-.252.218-.653.64-.777 1.188-.184.82.1 1.822.837 2.825.736 1.003 2.108 2.607 4.534 3.293.782.22 1.397.072 1.871-.231.376-.24.635-.626.729-1.062l.083-.386c.026-.123-.037-.247-.15-.3l-1.753-.807c-.114-.052-.248-.019-.325.08l-.688.89c-.052.068-.14.095-.221.067-.471-.166-2.049-.826-2.915-2.492-.037-.072-.028-.16.025-.221l.658-.76c.067-.078.084-.187.043-.28l-.755-1.766c-.04-.094-.13-.157-.232-.163z"/>
</svg>
