<?xml version="1.0" encoding="UTF-8"?>
<svg xmlns="http://www.w3.org/2000/svg" viewBox="0 0 2547.64 1649.35">
  <defs>
    <style>
      .cls-1 {
        fill: #fff;
        opacity: .5;
      }
    </style>
  </defs>
  <g>
    <g id="Capa_2" data-name="Capa 2">
      <g id="Capa_1-2" data-name="Capa 1">
        <path class="cls-1" d="M103.82,973.34l.73-.36c47.64,22.69,95.15,46.54,142.49,70.32,156.26,78.46,310.8,156.06,462.83,188.17,350.53,74.04,687.79-93.93,1002.24-1050.85l.8-.39c-314.67,957.88-652.27,1125.98-1003.19,1051.86-152.1-32.13-306.69-109.74-462.98-188.22-47.49-23.84-95.14-47.77-142.92-70.52M78.91,985.62l.76-.37c58.84,25,117.74,52.02,176.58,79.02,163.31,74.94,326.09,149.63,485.39,179.89,373.59,70.96,728.15-102.68,1025.89-1090.85l.78-.39c-297.92,989.12-652.82,1162.88-1026.81,1091.85-159.38-30.27-322.19-104.98-485.53-179.93-58.99-27.07-118.06-54.17-177.05-79.22ZM49.57,1000.08l.79-.39c70.33,26.47,141.19,56.17,212.21,85.93,171.28,71.79,343.49,143.97,511.27,172.08,397.05,66.52,769.43-113.95,1046.53-1130.45l.77-.38c-277.26,1017.43-649.98,1198.04-1047.43,1131.45-167.85-28.12-340.1-100.31-511.42-172.12-71.2-29.84-142.23-59.62-212.73-86.13ZM15.76,1016.74l.81-.4c81.88,27.07,165.17,58.94,249.05,91.04,180.48,69.06,363.71,139.17,541.52,164.77,420.65,60.55,811.05-128.28,1063.44-1169.64l.75-.37c-252.5,1042.28-643.25,1231.24-1064.3,1170.63-177.88-25.6-361.14-95.73-541.66-164.8-84.08-32.17-167.56-64.11-249.62-91.22ZM.38,1042.3l-.38-.78c86.4,25.64,175.13,56.62,264.99,88,191.24,66.77,387.58,135.33,577.36,157.93,444.03,52.85,852.27-146.14,1075.7-1208.33l.73-.36c-223.52,1063.09-632.09,1262.22-1076.52,1209.32-189.86-22.6-386.23-91.17-577.5-157.95-89.65-31.3-178.17-62.21-264.38-87.81ZM18.32,1078.69l-.38-.77c78.66,22.01,159.73,47.84,242.16,74.1,203.88,64.95,416.03,132.54,620.22,151.47,466.83,43.29,892.13-167.94,1082.33-1246.37l.71-.35c-190.24,1079.31-615.89,1290.68-1083.11,1247.35-204.26-18.94-416.45-86.54-620.36-151.5-82.22-26.19-163.1-51.96-241.57-73.93ZM36.31,1115.18l-.37-.76c69.48,18.33,141.21,39.18,214.35,60.45,218.77,63.6,450.18,130.88,671.77,145.25,488.6,31.7,929.53-193.97,1082.22-1283.52l.69-.34c-152.71,1090.39-593.98,1316.22-1082.98,1284.49-221.66-14.38-453.11-81.67-671.91-145.28-72.94-21.21-144.48-42-213.78-60.29ZM54.34,1151.76l-.37-.75c58.56,14.56,118.97,30.6,180.67,46.99,236.18,62.73,491.24,130.47,733.87,139.05,508.9,17.99,963.2-224.38,1074.25-1319.42l.68-.33c-111.04,1095.86-565.68,1338.39-1074.97,1320.38-242.7-8.58-497.8-76.33-734.02-139.07-61.5-16.33-121.72-32.33-180.11-46.85ZM72.41,1188.42l-.36-.74c45.49,10.65,92.24,22.02,139.96,33.63,256.32,62.34,540.62,131.49,808.69,132.56,527.19,2.11,991.63-259.2,1057.19-1353.54l.67-.33c-65.5,1095.13-530.29,1356.61-1057.87,1354.5-268.15-1.07-552.49-70.23-808.84-132.58-47.53-11.56-94.09-22.88-139.42-33.5ZM90.52,1225.16l-.36-.73c29.65,6.53,59.89,13.3,90.64,20.18,279.12,62.45,599.9,134.23,898.72,125.45,539.2-15.84,1006.92-294.1,1029.59-1362.74l.62,1.26c-23.02,1068.1-490.88,1346.27-1030.21,1362.11-298.91,8.78-619.73-63.01-898.89-125.47-30.57-6.84-60.63-13.56-90.11-20.06ZM108.66,1261.96l-.36-.72c10.08,2.09,20.23,4.2,30.45,6.32,304.06,63.1,670.95,139.24,1007.06,117.42,538.49-34.97,997.93-321.58,993.57-1316.24l.65,1.32c3.95,994.06-455.61,1280.58-994.19,1315.55-336.19,21.83-703.13-54.32-1007.23-117.43-10.05-2.09-20.03-4.16-29.95-6.21ZM126.83,1298.83l-.35-.72c323,62.86,728.84,137.33,1093.76,99.76,532.24-54.78,977.41-348.03,951.62-1263.24l.68,1.38c25.3,914.58-419.95,1207.71-952.25,1262.5-364.84,37.55-770.51-36.83-1093.46-99.68ZM145.03,1335.76l-.35-.71c338.46,61.8,774.47,128.06,1158.56,72.89,519.53-74.61,944.02-371.52,903.7-1202.13l.71,1.45c39.77,829.92-384.79,1126.68-904.34,1201.3-384.02,55.15-819.86-11.02-1158.29-72.81ZM163.26,1372.74l-.35-.7c389.36,66.61,916.18,128.59,1343,17.57,445.84-115.97,782.47-420.8,739.22-1106.34l.74,1.5c42.68,684.84-293.99,989.5-739.8,1105.46-426.76,111-953.43,49.11-1342.8-17.48ZM181.51,1409.77l-.34-.7c394.46,63.13,938.29,111.11,1374.95-8.48,441.23-120.84,772.97-412.84,730.45-1033.24l.74,1.5c41.89,619.71-289.87,911.52-731.03,1032.34-436.6,119.57-980.28,71.68-1374.77,8.57ZM199.79,1446.85l-.34-.69c398.55,59.57,957.7,93.44,1403.69-33.67,173.88-49.56,330.55-123.59,453.77-230.1,123.21-106.51,212.99-245.5,253.1-425,20.02-89.59,27.66-189.27,20.92-300.03l.74,1.49c6.58,110.21-1.09,209.44-21.03,298.66-40.14,179.64-130,318.75-253.31,425.35-123.3,106.58-280.06,180.65-454.03,230.24-445.92,127.09-1004.92,93.29-1403.51,33.76ZM218.09,1483.98l-.34-.69c422.75,58.88,1034.99,77.77,1499.83-80.24,159.44-54.2,301.54-129.21,412.68-230.55,111.13-101.33,191.32-229,226.97-388.53,15.89-71.12,22.93-148.58,19.91-232.86l.7,1.42c2.89,83.77-4.17,160.79-19.98,231.56-35.68,159.66-115.94,287.44-227.17,388.87-111.21,101.41-253.39,176.46-412.91,230.69-464.79,157.99-1076.89,139.17-1499.69,80.33ZM236.41,1521.16l-.34-.68c305.63,39.58,714.73,52.67,1096.45-3.75,285.22-42.15,555.15-123.11,755.16-260.82,199.98-137.68,330.07-332.09,335.68-601.18.07-3.17.11-6.35.14-9.54l.63,1.28c-.03,2.76-.07,5.51-.13,8.25-5.62,269.33-135.82,463.91-335.96,601.7-200.1,137.77-470.13,218.76-755.45,260.93-381.61,56.4-790.56,43.35-1096.19,3.81ZM254.75,1558.36l-.33-.68c325.07,39.03,772.05,42.01,1179.49-32.98,277.4-51.06,536.46-138.25,726.2-274.81,174.98-125.93,290.99-293.86,308.05-514.15l.56,1.13c-17.37,219.96-133.39,387.69-308.23,513.52-189.82,136.62-448.97,223.85-726.46,274.92-407.32,74.97-854.16,72.03-1179.26,33.04ZM273.11,1595.61l-.33-.68c345.02,38.3,832.63,29.35,1265.37-65.85,268.48-59.07,515.82-151.33,694.84-286.1,146.99-110.66,247.89-249.99,276.62-423.13l.49.99c-28.96,172.9-129.86,312.07-276.73,422.64-179.1,134.83-426.53,227.13-695.1,286.21-432.63,95.18-920.1,104.16-1265.16,65.91ZM291.49,1632.89l-.33-.67c365.08,37.33,895.51,14.59,1352.44-102.04,258.77-66.05,493.96-162.2,662.15-294.6,119.54-94.1,205.21-206.51,241.47-339.44l.43.87c-36.41,132.75-122.07,245.04-241.5,339.06-168.26,132.46-403.54,228.65-662.39,294.72-456.83,116.6-987.12,139.37-1352.26,102.09ZM1655.09,208.72c-327.71,924.21-648.72,1087.5-977.21,1011.47-145.78-33.74-293-114.6-442.94-196.94-36.69-20.15-73.54-40.38-110.57-60.04l.71-.35c36.9,19.59,73.62,39.76,110.18,59.84,149.9,82.32,297.09,163.16,442.77,196.88,328.1,75.95,648.77-87.22,976.23-1010.45l.82-.4Z"/>
      </g>
    </g>
  </g>
</svg>