<svg width="148" height="57" viewBox="0 0 148 57" fill="none" xmlns="http://www.w3.org/2000/svg">
<path d="M70.7814 56.6973C70.3311 56.6973 69.9626 56.5964 69.6147 56.4146C69.2872 56.2328 69.0211 55.95 68.8369 55.5864C68.6526 55.2229 68.5503 54.7785 68.5503 54.2735C68.5503 53.7686 68.6526 53.3242 68.8369 52.9606C69.0211 52.5971 69.3076 52.3143 69.6556 52.1123C70.0036 51.9103 70.4334 51.8093 70.9042 51.8093C71.4159 51.8093 71.8457 51.9103 72.1732 52.0921C72.5007 52.2739 72.7464 52.5769 72.9306 52.9808L72.0095 53.3848C71.9276 53.1222 71.8048 52.9404 71.6206 52.8192C71.4364 52.6981 71.2112 52.6375 70.9247 52.6375C70.6586 52.6375 70.4129 52.6981 70.2083 52.8192C70.0036 52.9404 69.8603 53.1222 69.7579 53.3646C69.6556 53.607 69.5942 53.91 69.5942 54.2533C69.5942 54.6169 69.6556 54.9199 69.7375 55.1623C69.8398 55.4046 69.9831 55.5864 70.1878 55.7076C70.3925 55.8288 70.6381 55.8894 70.9247 55.8894C71.0884 55.8894 71.2317 55.8692 71.375 55.8288C71.5182 55.7884 71.6411 55.7278 71.7434 55.647C71.8457 55.5662 71.9276 55.4652 71.989 55.3441C72.0504 55.2229 72.0709 55.0815 72.0709 54.9199V54.8189H70.8223V54.1321H72.9511V56.6368H72.2551L72.1732 55.6066L72.3575 55.7278C72.2551 56.051 72.0709 56.2934 71.7843 56.455C71.5182 56.6166 71.1703 56.6973 70.7814 56.6973Z" fill="#0B0F26"/>
<path d="M75.939 55.8288H78.4771V56.6165H74.936V51.8699H75.939V55.8288V55.8288Z" fill="#0B0F26"/>
<path d="M82.1006 51.8093C82.5713 51.8093 82.9807 51.9103 83.3287 52.1123C83.6766 52.3143 83.9427 52.5971 84.127 52.9606C84.3112 53.3242 84.4135 53.7686 84.4135 54.2735C84.4135 54.7785 84.3112 55.2229 84.127 55.5864C83.9427 55.95 83.6766 56.2328 83.3287 56.4348C82.9807 56.6368 82.5713 56.7377 82.1006 56.7377C81.6298 56.7377 81.2204 56.6368 80.8724 56.4348C80.5245 56.2328 80.2584 55.95 80.0742 55.5864C79.8899 55.2229 79.7876 54.7785 79.7876 54.2735C79.7876 53.7686 79.8899 53.3242 80.0742 52.9606C80.2584 52.5971 80.5245 52.3143 80.8724 52.1123C81.1999 51.9103 81.6093 51.8093 82.1006 51.8093ZM82.1006 52.6173C81.8345 52.6173 81.6093 52.6779 81.4046 52.799C81.1999 52.9202 81.0771 53.102 80.9748 53.3444C80.8724 53.5868 80.8315 53.8898 80.8315 54.2331C80.8315 54.5765 80.8724 54.8795 80.9748 55.1219C81.0771 55.3643 81.2204 55.546 81.4046 55.6672C81.5888 55.7884 81.8345 55.849 82.1006 55.849C82.3667 55.849 82.5918 55.7884 82.776 55.6672C82.9602 55.546 83.1035 55.3643 83.2059 55.1219C83.3082 54.8795 83.3491 54.5765 83.3491 54.2331C83.3491 53.8898 83.3082 53.5868 83.2059 53.3444C83.1035 53.102 82.9602 52.9202 82.776 52.799C82.5918 52.6779 82.3667 52.6173 82.1006 52.6173Z" fill="#0B0F26"/>
<path d="M86.2759 56.6165V51.8699H88.3842C88.9573 51.8699 89.3871 51.9911 89.6737 52.2132C89.9602 52.4354 90.0831 52.7586 90.0831 53.1626C90.0831 53.4252 90.0012 53.6473 89.8579 53.8291C89.6942 54.0311 89.469 54.1523 89.1824 54.1927C89.5099 54.2331 89.776 54.3745 89.9602 54.5765C90.1445 54.7784 90.2263 55.0208 90.2263 55.3036C90.2263 55.7076 90.0831 56.0308 89.776 56.2529C89.469 56.4751 89.0392 56.5963 88.466 56.5963H86.2759V56.6165ZM87.2584 53.8695H88.2613C88.7935 53.8695 89.0596 53.6675 89.0596 53.2636C89.0596 52.8596 88.7935 52.6576 88.2613 52.6576H87.2584V53.8695ZM87.2584 55.8894H88.3637C88.6298 55.8894 88.8345 55.8288 88.9777 55.7278C89.1006 55.6268 89.1824 55.4652 89.1824 55.2632C89.1824 55.0612 89.121 54.8996 88.9777 54.7986C88.8549 54.6977 88.6502 54.6371 88.3637 54.6371H87.2584V55.8894Z" fill="#0B0F26"/>
<path d="M91.4746 56.6165L93.2349 51.8699H94.4426L96.2029 56.6165H95.159L94.0537 53.3848L93.8285 52.6576H93.808L93.6033 53.3646L92.498 56.5963H91.4746V56.6165ZM92.498 55.4652V54.7381H95.1385V55.4652H92.498Z" fill="#0B0F26"/>
<path d="M98.7618 55.8288H101.3V56.6165H97.7588V51.8699H98.7618V55.8288V55.8288Z" fill="#0B0F26"/>
<path d="M110.061 51.8899V56.6365H108.914L107.236 53.8491L106.826 53.0816L106.847 53.9097V56.6567H105.946V51.9101H107.093L108.771 54.6975L109.18 55.4852H109.201L109.18 54.6571V51.9101H110.061V51.8899Z" fill="#0B0F26"/>
<path d="M112.189 56.6165V51.8699H115.791V52.6576H113.192V53.8291H115.239V54.5967H113.192V55.8086H115.894V56.5963H112.189V56.6165Z" fill="#0B0F26"/>
<path d="M121.461 51.8899V52.6776H119.844V56.6163H118.841V52.6776H117.224V51.8899H121.461Z" fill="#0B0F26"/>
<path d="M124.061 56.6165L122.669 51.8699H123.733L124.675 55.7884L125.637 51.8699H126.599L127.581 55.7884L128.523 51.8699H129.546L128.155 56.6165H127.029L126.353 54.0311L126.128 52.9202H126.108L125.883 54.0311L125.228 56.6165H124.061Z" fill="#0B0F26"/>
<path d="M133.169 51.8093C133.64 51.8093 134.05 51.9103 134.398 52.1123C134.746 52.3143 135.012 52.5971 135.196 52.9606C135.38 53.3242 135.482 53.7686 135.482 54.2735C135.482 54.7785 135.38 55.2229 135.196 55.5864C135.012 55.95 134.746 56.2328 134.398 56.4348C134.05 56.6368 133.64 56.7377 133.169 56.7377C132.699 56.7377 132.289 56.6368 131.941 56.4348C131.593 56.2328 131.327 55.95 131.143 55.5864C130.959 55.2229 130.856 54.7785 130.856 54.2735C130.856 53.7686 130.959 53.3242 131.143 52.9606C131.327 52.5971 131.593 52.3143 131.941 52.1123C132.269 51.9103 132.699 51.8093 133.169 51.8093ZM133.169 52.6173C132.903 52.6173 132.678 52.6779 132.473 52.799C132.289 52.9202 132.126 53.102 132.044 53.3444C131.941 53.5868 131.9 53.8898 131.9 54.2331C131.9 54.5765 131.941 54.8795 132.044 55.1219C132.146 55.3643 132.289 55.546 132.473 55.6672C132.658 55.7884 132.903 55.849 133.169 55.849C133.435 55.849 133.661 55.7884 133.845 55.6672C134.029 55.546 134.172 55.3643 134.275 55.1219C134.377 54.8795 134.418 54.5765 134.418 54.2331C134.418 53.8898 134.377 53.5868 134.275 53.3444C134.172 53.102 134.029 52.9202 133.845 52.799C133.661 52.6981 133.435 52.6173 133.169 52.6173Z" fill="#0B0F26"/>
<path d="M139.473 51.8899C140.026 51.8899 140.435 52.0111 140.763 52.2737C141.07 52.5362 141.234 52.8796 141.234 53.324C141.234 53.7885 141.07 54.1521 140.763 54.3945C140.456 54.6369 140.026 54.7581 139.494 54.7581L139.392 54.8187H138.368V56.6365H137.345V51.8899H139.473ZM139.351 54.0511C139.637 54.0511 139.842 53.9905 139.985 53.8895C140.128 53.7683 140.19 53.6068 140.19 53.3644C140.19 53.122 140.128 52.9604 139.985 52.8392C139.842 52.718 139.637 52.6776 139.351 52.6776H138.348V54.0511H139.351ZM139.944 54.2733L141.5 56.6365H140.374L139.085 54.5561L139.944 54.2733Z" fill="#0B0F26"/>
<path d="M144.181 51.8899V56.6365H143.178V51.8899H144.181ZM147.313 51.8899L145.123 54.3541L145.041 54.2733L143.833 55.6064L143.69 54.6975L146.146 51.8899H147.313ZM145.389 53.526L147.374 56.6163H146.228L144.632 54.0713L145.389 53.526Z" fill="#0B0F26"/>
<path d="M75.9388 22.8244C78.1904 22.8244 79.9302 22.1982 81.1583 20.9459C82.366 19.7138 82.9801 17.9969 82.9801 15.8357V15.3308H80.3805V15.9367C80.3805 17.2698 80.0121 18.3807 79.2957 19.2291C78.5793 20.0572 77.4535 20.4814 75.9388 20.4814C74.4242 20.4814 73.2165 20.0168 72.3773 19.1079C71.5176 18.1989 71.0878 16.886 71.0878 15.2298V10.9073C71.0878 9.25102 71.5176 7.93812 72.3773 7.02919C73.2165 6.12026 74.4242 5.6557 75.9388 5.6557C77.4535 5.6557 78.5793 6.07987 79.2957 6.908C80.0121 7.75634 80.3805 8.86725 80.3805 10.2003V10.6043H82.9801V10.2811C82.9801 8.14011 82.366 6.42324 81.1583 5.17094C79.9507 3.91863 78.1904 3.29248 75.9388 3.29248C73.6668 3.29248 71.8451 3.95903 70.4942 5.25173C69.1432 6.54443 68.4678 8.46328 68.4678 10.9477V15.149C68.4678 17.6334 69.1432 19.5522 70.4942 20.8449C71.8451 22.1578 73.6873 22.8244 75.9388 22.8244Z" fill="#0B0F26"/>
<path d="M99.4784 19.6129C100.052 18.603 100.338 17.3911 100.338 16.0176V15.6742C100.338 14.3209 100.052 13.109 99.4784 12.0789C98.9053 11.0488 98.0866 10.2611 97.0631 9.6955C96.0397 9.12995 94.8321 8.84717 93.5016 8.84717C92.1711 8.84717 90.9635 9.12995 89.94 9.6955C88.9166 10.2611 88.0978 11.0488 87.5247 12.0789C86.9516 13.109 86.665 14.3007 86.665 15.6742V16.0176C86.665 17.3911 86.9516 18.603 87.5247 19.6129C88.0978 20.6229 88.9166 21.4308 89.94 21.9964C90.9635 22.5619 92.1711 22.8447 93.5016 22.8447C94.8321 22.8447 96.0397 22.5619 97.0631 21.9964C98.0866 21.4308 98.9053 20.6229 99.4784 19.6129ZM97.841 15.7146V15.957C97.841 17.3709 97.4316 18.502 96.6538 19.3302C95.876 20.1583 94.7911 20.5825 93.4811 20.5825C92.1711 20.5825 91.1067 20.1583 90.3085 19.3302C89.5102 18.502 89.1008 17.3709 89.1008 15.957V15.7146C89.1008 14.3007 89.5102 13.1696 90.3085 12.3415C91.1067 11.5134 92.1711 11.0892 93.4811 11.0892C94.8116 11.0892 95.876 11.5134 96.6538 12.3415C97.4521 13.1696 97.841 14.3007 97.841 15.7146Z" fill="#0B0F26"/>
<path d="M107.317 22.0165C108.279 22.5618 109.364 22.8244 110.51 22.8244C111.902 22.8244 112.987 22.5618 113.765 22.0367C114.502 21.5317 115.054 20.9661 115.423 20.34H115.484V22.4608H117.92V3.67627H115.443V11.2507H115.382C115.157 10.8669 114.87 10.5033 114.502 10.16C114.092 9.7762 113.56 9.47322 112.905 9.23084C112.25 8.98846 111.452 8.86727 110.531 8.86727C109.364 8.86727 108.279 9.15005 107.338 9.6954C106.376 10.2408 105.598 11.0487 105.045 12.0586C104.472 13.0685 104.186 14.3006 104.186 15.6943V16.0377C104.186 17.4314 104.472 18.6635 105.025 19.6734C105.577 20.6834 106.355 21.4711 107.317 22.0165ZM106.683 15.9569V15.7145C106.683 14.2401 107.092 13.0887 107.911 12.2808C108.73 11.4729 109.794 11.0689 111.063 11.0689C112.353 11.0689 113.417 11.4729 114.215 12.2808C115.013 13.0887 115.423 14.2401 115.423 15.7145V15.9569C115.423 17.4314 115.013 18.5827 114.215 19.3907C113.417 20.1986 112.353 20.6026 111.063 20.6026C109.794 20.6026 108.73 20.1986 107.911 19.3907C107.092 18.5827 106.683 17.4314 106.683 15.9569Z" fill="#0B0F26"/>
<path d="M125.637 21.9762C126.661 22.5417 127.848 22.8245 129.199 22.8245C130.386 22.8245 131.389 22.6225 132.167 22.2589C132.945 21.8752 133.579 21.4106 134.07 20.845C134.541 20.2997 134.93 19.7341 135.196 19.1686L135.278 19.007L133.108 17.9769L133.047 18.1385C132.74 18.805 132.29 19.3908 131.717 19.8957C131.143 20.3805 130.325 20.6229 129.26 20.6229C128.032 20.6229 127.009 20.2391 126.19 19.5119C125.412 18.805 124.982 17.8355 124.901 16.5832H135.524V15.4319C135.524 14.0988 135.237 12.9273 134.705 11.9577C134.152 10.968 133.395 10.2005 132.413 9.65511C131.45 9.12995 130.325 8.84717 129.076 8.84717C127.787 8.84717 126.62 9.12995 125.617 9.6955C124.614 10.2611 123.816 11.069 123.243 12.0991C122.69 13.1292 122.403 14.3411 122.403 15.6944V16.0176C122.403 17.3507 122.69 18.5626 123.243 19.5725C123.816 20.6027 124.614 21.4106 125.637 21.9762ZM129.056 11.069C130.181 11.069 131.103 11.3922 131.819 12.0183C132.494 12.6041 132.883 13.4322 132.986 14.4825H124.941C125.126 13.4524 125.576 12.6243 126.251 12.0183C126.988 11.3922 127.93 11.069 129.056 11.069Z" fill="#0B0F26"/>
<path d="M70.9243 46.5375H74.67V36.2363H78.1292V33.1257H74.67V31.4694C74.67 31.0453 74.8338 30.8635 75.2227 30.8635H77.6994V27.7529H74.0355C73.1144 27.7529 72.3571 28.0357 71.7839 28.6013C71.2108 29.1668 70.9243 29.9344 70.9243 30.8837V33.1055H67.5674V36.2161H70.9243V46.5375Z" fill="#0B0F26"/>
<path d="M93.6645 43.7499C94.2786 42.7198 94.6061 41.4877 94.6061 40.0536V39.6294C94.6061 38.1953 94.2991 36.9632 93.6645 35.9331C93.0505 34.903 92.1908 34.1153 91.1059 33.5699C90.0416 33.0245 88.8134 32.762 87.483 32.762C86.1525 32.762 84.9244 33.0245 83.86 33.5699C82.7752 34.1153 81.9155 34.903 81.3014 35.9331C80.6874 36.9632 80.3599 38.1953 80.3599 39.6294V40.0536C80.3599 41.4877 80.6669 42.7198 81.3014 43.7499C81.9155 44.78 82.7752 45.5678 83.86 46.1131C84.9244 46.6585 86.1525 46.9211 87.483 46.9211C88.8134 46.9211 90.0416 46.6585 91.1059 46.1131C92.1908 45.5678 93.0505 44.7598 93.6645 43.7499ZM87.483 43.5883C86.5005 43.5883 85.7022 43.2652 85.0677 42.6592C84.4331 42.033 84.1056 41.1443 84.1056 39.9728V39.7102C84.1056 38.5387 84.4331 37.6298 85.0677 37.0238C85.7022 36.3977 86.521 36.0947 87.483 36.0947C88.4655 36.0947 89.2842 36.3977 89.9188 37.0238C90.5533 37.65 90.8603 38.5387 90.8603 39.7102V39.9728C90.8603 41.1443 90.5328 42.0532 89.8983 42.6592C89.2842 43.2652 88.4655 43.5883 87.483 43.5883Z" fill="#0B0F26"/>
<path d="M103.245 33.4692C102.794 33.7115 102.446 34.0953 102.242 34.6003H102.078V33.1258H98.3936V46.5375H102.139V38.9227C102.139 38.0542 102.385 37.4078 102.897 37.0039C103.408 36.5797 104.084 36.3777 104.882 36.3777H106.724V33.0652H104.944C104.289 33.0652 103.715 33.2066 103.245 33.4692Z" fill="#0B0F26"/>
<path d="M127.5 27.7529H121.072L116.14 46.2951L116.078 46.5375H120.11L121.113 42.4776H127.479L128.482 46.5375H132.514L127.541 27.8943L127.5 27.7529ZM126.558 38.9025H122.035L124.204 30.3181H124.388L126.558 38.9025Z" fill="#0B0F26"/>
<path d="M139.228 27.7529H135.482V46.5375H139.228V27.7529Z" fill="#0B0F26"/>
<path d="M147.375 27.7529H143.629V46.5375H147.375V27.7529Z" fill="#0B0F26"/>
<path d="M28.3696 57C28.7176 57 29.0655 57 29.4135 57V37.7509L31.5627 56.899C31.9107 56.8586 32.2382 56.798 32.5862 56.7576L30.2527 36.0138L35.3904 56.2729C35.7179 56.1921 36.0658 56.1113 36.3933 56.0305L30.9691 34.5797L39.8116 54.9196C40.1391 54.7984 40.4461 54.6368 40.7532 54.4954L31.6037 33.4284L44.4989 52.5159C44.7855 52.3342 45.0721 52.1322 45.3586 51.9302L32.2382 32.5195L48.9611 49.0216C49.0839 48.9004 49.2272 48.7994 49.35 48.6782C49.4728 48.5571 49.5752 48.4157 49.698 48.2945L32.9751 31.7923L52.6455 44.7395C52.8502 44.4568 53.0344 44.174 53.2391 43.8912L33.8962 31.1662L55.245 40.1949C55.3883 39.8919 55.552 39.5889 55.6748 39.2658L35.0424 30.54L56.7801 35.9128C56.862 35.5897 56.9439 35.2463 57.0258 34.9231L36.4957 29.8533L57.5375 32.1559C57.5784 31.8125 57.6398 31.4894 57.6808 31.146L38.256 29.0252H57.7831C57.7831 28.6818 57.7831 28.3384 57.7831 27.995H38.256L57.6808 25.8742C57.6398 25.5308 57.5784 25.2077 57.5375 24.8643L36.4957 27.1669L57.0258 22.0971C56.9439 21.7739 56.862 21.4305 56.7801 21.1074L35.0424 26.46L55.6748 17.7342C55.552 17.4111 55.3883 17.1081 55.245 16.8051L33.8962 25.8338L53.2186 13.1088C53.0344 12.826 52.8297 12.5432 52.625 12.2605L32.9546 25.2077L49.6775 8.70553C49.5547 8.58434 49.4524 8.44295 49.3295 8.32176C49.2067 8.20057 49.0635 8.09957 48.9406 7.97838L32.2177 24.4805L45.3381 5.06981C45.0516 4.86782 44.765 4.68604 44.4785 4.48405L31.5832 23.5716L40.7327 2.52481C40.4257 2.38342 40.1186 2.22183 39.7911 2.10064L30.9691 22.4203L36.3933 0.969525C36.0658 0.888731 35.7179 0.807938 35.3904 0.727144L30.2527 20.9862L32.5862 0.242381C32.2382 0.201984 31.9107 0.141389 31.5627 0.100992L29.4135 19.2491V0C29.0655 0 28.7176 0 28.3696 0V19.2491L26.2204 0.100992C25.8724 0.141389 25.5449 0.201984 25.197 0.242381L27.5304 20.9862L22.3927 0.747342C22.0652 0.828136 21.7173 0.90893 21.3898 0.989724L26.814 22.4203L17.9715 2.08044C17.6645 2.22183 17.3574 2.38342 17.0299 2.52481L26.1795 23.5918L13.2842 4.50425C12.9976 4.68604 12.7111 4.88802 12.445 5.06981L25.5654 24.4805L8.84247 7.99858C8.69919 8.11977 8.57638 8.22077 8.45357 8.34196C8.33076 8.46315 8.22841 8.58434 8.1056 8.72573L24.8285 25.2279L5.13764 12.2807C4.93295 12.5634 4.74874 12.8462 4.54405 13.129L23.887 25.854L2.55859 16.8051C2.41531 17.1283 2.25156 17.4313 2.10828 17.7342L22.7407 26.46L1.00297 21.1074C0.921091 21.4305 0.839216 21.7739 0.757342 22.0971L21.2874 27.1669L0.245624 24.8441C0.204687 25.1875 0.143281 25.5106 0.102343 25.854L19.5271 27.9748H0C0 28.3182 0 28.6616 0 29.005H19.5271L0.102343 31.1258C0.143281 31.4692 0.204687 31.7923 0.245624 32.1357L21.2874 29.8331L0.757342 34.9231C0.839216 35.2463 0.921091 35.5897 1.00297 35.9128L22.7407 30.54L2.10828 39.2658C2.23109 39.5889 2.39484 39.8919 2.53812 40.1949L23.887 31.1662L4.54405 43.8912C4.72827 44.174 4.93295 44.4568 5.13764 44.7395L24.8081 31.7923L8.08513 48.2945C8.20794 48.4157 8.31029 48.5571 8.4331 48.6782C8.55591 48.7994 8.69919 48.9004 8.82201 49.0216L25.5449 32.5195L12.4245 51.9302C12.7111 52.1322 12.9976 52.3342 13.2842 52.5159L26.1795 33.4284L17.0299 54.4954C17.337 54.6368 17.644 54.7984 17.9715 54.9196L26.814 34.5797L21.3898 56.0305C21.7173 56.1113 22.0652 56.1921 22.3927 56.2729L27.5304 36.0138L25.1765 56.7778C25.5245 56.8182 25.852 56.8788 26.1999 56.9192L28.3491 37.7711L28.3696 57Z" fill="#00AAFF"/>
</svg>
