<svg class="logo-main" viewBox="0 0 765 297" fill="none" xmlns="http://www.w3.org/2000/svg">
  <g class="logo-main__subtitle">
    <path d="M354 190.3V194.3C354 194.9 353.7 195.2 353.1 195.2H347.8C347.6 195.2 347.5 195.3 347.5 195.5V217.4C347.5 218 347.2 218.3 346.6 218.3H341.8C341.2 218.3 340.9 218 340.9 217.4V195.5C340.9 195.3 340.8 195.2 340.6 195.2H337.4C336.8 195.2 336.5 194.9 336.5 194.3V190.3C336.5 189.7 336.8 189.4 337.4 189.4H340.6C340.8 189.4 340.9 189.3 340.9 189.1V188.1C340.9 185.6 341.2 183.8 341.9 182.4C342.5 181.1 343.6 180.1 345.1 179.5C346.6 178.9 348.7 178.7 351.3 178.7H353.1C353.7 178.7 354 179 354 179.6V183.1C354 183.7 353.7 184 353.1 184H351.9C350.3 184 349.1 184.3 348.5 185C347.9 185.6 347.6 186.8 347.6 188.5V189C347.6 189.2 347.7 189.3 347.9 189.3H353.2C353.7 189.4 354 189.7 354 190.3Z" fill="var(--color-text)"></path>
    <path d="M361.1 216.5C358.9 215 357.4 212.9 356.6 210.2C356 208.4 355.6 206.2 355.6 203.8C355.6 201.4 355.9 199.2 356.5 197.4C357.4 194.8 358.9 192.7 361 191.2C363.2 189.7 365.7 189 368.8 189C371.7 189 374.2 189.7 376.3 191.2C378.4 192.7 379.9 194.7 380.8 197.3C381.5 199.1 381.8 201.3 381.8 203.7C381.8 206.1 381.5 208.2 380.8 210.1C379.9 212.8 378.4 214.9 376.3 216.4C374.2 217.9 371.7 218.7 368.8 218.7C365.8 218.8 363.3 218 361.1 216.5ZM372.4 212C373.4 211.2 374.1 210.1 374.5 208.7C374.9 207.5 375.1 205.9 375.1 204C375.1 202.2 374.9 200.6 374.5 199.3C374.1 197.9 373.4 196.8 372.3 196C371.3 195.2 370 194.8 368.6 194.8C367.2 194.8 365.9 195.2 364.9 196C363.9 196.8 363.2 197.9 362.7 199.3C362.3 200.6 362.1 202.2 362.1 204C362.1 205.8 362.3 207.4 362.7 208.7C363.1 210.1 363.8 211.2 364.9 212C365.9 212.8 367.2 213.2 368.7 213.2C370.2 213.1 371.4 212.7 372.4 212Z" fill="var(--color-text)"></path>
    <path d="M402.9 189.7C403.4 189.9 403.5 190.3 403.4 190.8L402.5 195.5C402.5 195.8 402.4 196 402.2 196.1C402 196.2 401.8 196.2 401.4 196.1C400.9 195.9 400.3 195.9 399.6 195.9C399.1 195.9 398.8 195.9 398.5 196C396.9 196.1 395.6 196.6 394.5 197.7C393.4 198.7 392.9 200.1 392.9 201.7V217.5C392.9 218.1 392.6 218.4 392 218.4H387.2C386.6 218.4 386.3 218.1 386.3 217.5V190.4C386.3 189.8 386.6 189.5 387.2 189.5H392C392.6 189.5 392.9 189.8 392.9 190.4V192.6C392.9 192.8 392.9 192.8 393 192.9C393.1 192.9 393.2 192.9 393.2 192.7C394.8 190.3 397 189.1 399.8 189.1C401 189.1 402 189.3 402.9 189.7Z" fill="var(--color-text)"></path>
    <path d="M423.5 217.4C421.3 216.5 419.7 215.1 418.5 213.4C417.3 211.7 416.7 209.7 416.7 207.4V206.2C416.7 205.6 417 205.3 417.6 205.3H422.3C422.9 205.3 423.2 205.6 423.2 206.1V207C423.2 208.7 424 210.2 425.5 211.3C427 212.5 429.1 213 431.6 213C433.9 213 435.6 212.5 436.8 211.5C438 210.5 438.6 209.3 438.6 207.7C438.6 206.6 438.3 205.7 437.6 205C437 204.3 436 203.6 434.8 203C433.6 202.4 431.8 201.6 429.4 200.7C426.7 199.7 424.5 198.8 422.9 197.9C421.2 197 419.8 195.9 418.7 194.4C417.6 192.9 417 191.1 417 188.8C417 185.5 418.2 182.9 420.6 180.9C423 178.9 426.3 178 430.3 178C433.1 178 435.6 178.5 437.8 179.5C440 180.5 441.7 181.8 442.9 183.6C444.1 185.4 444.7 187.4 444.7 189.7V190.4C444.7 191 444.4 191.3 443.8 191.3H439.1C438.8 191.3 438.6 191.2 438.4 191.1C438.2 191 438.1 190.8 438.1 190.6V190C438.1 188.2 437.4 186.7 435.9 185.5C434.4 184.3 432.4 183.7 429.9 183.7C427.8 183.7 426.2 184.1 425.1 185C423.9 185.9 423.4 187.1 423.4 188.7C423.4 189.8 423.7 190.8 424.3 191.5C424.9 192.2 425.8 192.9 427 193.5C428.2 194.1 430.1 194.8 432.6 195.7C435.3 196.7 437.4 197.6 439 198.5C440.6 199.3 442 200.5 443.1 202C444.3 203.5 444.8 205.3 444.8 207.6C444.8 209.8 444.2 211.7 443.1 213.4C442 215.1 440.3 216.4 438.2 217.3C436.1 218.2 433.6 218.7 430.7 218.7C427.8 218.7 425.7 218.3 423.5 217.4Z" fill="var(--color-text)"></path>
    <path d="M468.2 189.5H472.9C473.5 189.5 473.8 189.8 473.8 190.4V217.5C473.8 218.1 473.5 218.4 472.9 218.4H468.2C467.6 218.4 467.3 218.1 467.3 217.5V216C467.3 215.9 467.3 215.8 467.2 215.7C467.1 215.7 467 215.7 466.9 215.9C465.4 217.8 463.1 218.8 460 218.8C457.1 218.8 454.7 218 452.8 216.3C450.9 214.6 449.9 212.3 449.9 209.2V190.4C449.9 189.8 450.2 189.5 450.8 189.5H455.6C456.2 189.5 456.5 189.8 456.5 190.4V207.4C456.5 209.2 457 210.6 457.9 211.6C458.8 212.7 460.1 213.2 461.8 213.2C463.5 213.2 464.9 212.7 465.9 211.6C466.9 210.5 467.4 209.1 467.4 207.4V190.4C467.3 189.8 467.6 189.5 468.2 189.5Z" fill="var(--color-text)"></path>
    <path d="M484 217.6C482.2 216.9 480.8 215.9 479.8 214.7C478.8 213.5 478.3 212.1 478.3 210.6V210.3C478.3 209.7 478.6 209.4 479.2 209.4H483.7C484.3 209.4 484.6 209.5 484.6 209.8V210.2C484.6 211.1 485.1 212 486.2 212.7C487.2 213.4 488.6 213.7 490.1 213.7C491.6 213.7 492.8 213.4 493.8 212.8C494.7 212.2 495.2 211.4 495.2 210.5C495.2 209.6 494.8 209 494 208.6C493.2 208.2 492 207.7 490.2 207.2L488 206.5C486.1 205.9 484.4 205.3 483.1 204.7C481.8 204.1 480.7 203.2 479.8 202.1C478.9 201 478.4 199.6 478.4 197.8C478.4 195.2 479.4 193.1 481.5 191.5C483.6 189.9 486.3 189.2 489.7 189.2C492 189.2 494 189.6 495.8 190.3C497.5 191 498.9 192.1 499.9 193.4C500.9 194.7 501.3 196.2 501.3 197.8C501.3 198 501.2 198.1 501 198.3C500.8 198.4 500.6 198.5 500.3 198.5H495.9C495.3 198.5 495 198.4 495 198.2V197.9C495 196.9 494.5 196.1 493.6 195.4C492.6 194.7 491.3 194.4 489.7 194.4C488.2 194.4 487 194.7 486.1 195.2C485.2 195.7 484.7 196.5 484.7 197.5C484.7 198.4 485.1 199.1 486 199.6C486.9 200.1 488.3 200.6 490.4 201.2L491.7 201.5C493.7 202.1 495.4 202.7 496.8 203.3C498.2 203.9 499.3 204.8 500.3 205.9C501.2 207 501.7 208.5 501.7 210.3C501.7 213 500.6 215.1 498.5 216.6C496.4 218.1 493.6 218.9 490 218.9C487.9 218.7 485.8 218.3 484 217.6Z" fill="var(--color-text)"></path>
    <path d="M520.8 194.8H515.3C515.1 194.8 515 194.9 515 195.1V208.4C515 209.9 515.3 210.9 515.9 211.6C516.5 212.2 517.5 212.6 518.9 212.6H520.4C521 212.6 521.3 212.9 521.3 213.5V217.3C521.3 217.9 521 218.2 520.4 218.3L517.7 218.4C514.7 218.4 512.5 217.9 511 216.8C509.5 215.8 508.8 213.8 508.7 211V195.2C508.7 195 508.6 194.9 508.4 194.9H505.4C504.8 194.9 504.5 194.6 504.5 194V190.5C504.5 189.9 504.8 189.6 505.4 189.6H508.4C508.6 189.6 508.7 189.5 508.7 189.3V183C508.7 182.4 509 182.1 509.6 182.1H514.1C514.7 182.1 515 182.4 515 183V189.3C515 189.5 515.1 189.6 515.3 189.6H520.8C521.4 189.6 521.7 189.9 521.7 190.5V194C521.7 194.5 521.4 194.8 520.8 194.8Z" fill="var(--color-text)"></path>
    <path d="M543.6 190.2C545.4 191 546.8 192.2 547.8 193.6C548.8 195.1 549.3 196.7 549.3 198.5V217.3C549.3 217.9 549 218.2 548.4 218.2H543.6C543 218.2 542.7 217.9 542.7 217.3V216C542.7 215.9 542.7 215.8 542.6 215.7C542.5 215.7 542.4 215.7 542.3 215.8C540.3 217.8 537.5 218.7 534.1 218.7C531.3 218.7 529 218 527.2 216.6C525.4 215.2 524.5 213 524.5 210.2C524.5 207.3 525.5 205 527.6 203.3C529.7 201.7 532.6 200.8 536.3 200.8H542.3C542.5 200.8 542.6 200.7 542.6 200.5V199.2C542.6 197.7 542.2 196.6 541.3 195.8C540.4 195 539.1 194.6 537.4 194.6C536.1 194.6 535 194.8 534.1 195.3C533.2 195.8 532.6 196.4 532.3 197.3C532.1 197.8 531.8 198.1 531.3 198L526.2 197.4C525.9 197.4 525.7 197.3 525.5 197.1C525.3 197 525.3 196.8 525.3 196.6C525.6 194.3 526.9 192.5 529.1 191.1C531.3 189.7 534 189 537.2 189C539.7 189 541.8 189.4 543.6 190.2ZM540.8 212.1C542.1 211.1 542.8 209.9 542.8 208.4V205.8C542.8 205.6 542.7 205.5 542.5 205.5H537.8C535.8 205.5 534.2 205.9 533 206.6C531.8 207.4 531.2 208.4 531.2 209.8C531.2 211 531.7 211.9 532.6 212.6C533.5 213.3 534.7 213.6 536.1 213.6C537.9 213.6 539.5 213.1 540.8 212.1Z" fill="var(--color-text)"></path>
    <path d="M554.3 184.7C553.5 183.9 553.1 182.9 553.1 181.7C553.1 180.5 553.5 179.5 554.3 178.8C555.1 178 556.1 177.7 557.4 177.7C558.7 177.7 559.7 178.1 560.4 178.8C561.2 179.6 561.6 180.5 561.6 181.7C561.6 182.9 561.2 183.9 560.4 184.7C559.6 185.5 558.6 185.9 557.4 185.9C556.2 185.9 555.1 185.4 554.3 184.7ZM554.1 217.4V190.3C554.1 189.7 554.4 189.4 555 189.4H559.8C560.4 189.4 560.7 189.7 560.7 190.3V217.4C560.7 218 560.4 218.3 559.8 218.3H555C554.4 218.3 554.1 218 554.1 217.4Z" fill="var(--color-text)"></path>
    <path d="M587.4 191.7C589.2 193.5 590.2 196 590.2 199.1V217.4C590.2 218 589.9 218.3 589.3 218.3H584.5C583.9 218.3 583.6 218 583.6 217.4V200.4C583.6 198.7 583.1 197.3 582.1 196.2C581.1 195.1 579.8 194.6 578.2 194.6C576.6 194.6 575.3 195.1 574.3 196.2C573.3 197.3 572.8 198.7 572.8 200.4V217.4C572.8 218 572.5 218.3 571.9 218.3H567C566.4 218.3 566.1 218 566.1 217.4V190.3C566.1 189.7 566.4 189.4 567 189.4H571.8C572.4 189.4 572.7 189.7 572.7 190.3V191.8C572.7 192 572.7 192 572.8 192.1C572.9 192.1 573 192.1 573 192C574.6 190 576.9 188.9 580 188.9C583.1 189 585.6 189.9 587.4 191.7Z" fill="var(--color-text)"></path>
    <path d="M613 190.2C614.8 191 616.2 192.2 617.2 193.6C618.2 195.1 618.7 196.7 618.7 198.5V217.3C618.7 217.9 618.4 218.2 617.8 218.2H613C612.4 218.2 612.1 217.9 612.1 217.3V216C612.1 215.9 612.1 215.8 612 215.7C611.9 215.7 611.8 215.7 611.7 215.8C609.7 217.8 606.9 218.7 603.5 218.7C600.7 218.7 598.4 218 596.6 216.6C594.8 215.2 593.9 213 593.9 210.2C593.9 207.3 594.9 205 597 203.3C599.1 201.7 602 200.8 605.7 200.8H611.7C611.9 200.8 612 200.7 612 200.5V199.2C612 197.7 611.6 196.6 610.7 195.8C609.8 195 608.5 194.6 606.8 194.6C605.5 194.6 604.4 194.8 603.5 195.3C602.6 195.8 602 196.4 601.7 197.3C601.5 197.8 601.2 198.1 600.7 198L595.6 197.4C595.3 197.4 595.1 197.3 594.9 197.1C594.7 197 594.7 196.8 594.7 196.6C595 194.3 596.3 192.5 598.5 191.1C600.7 189.7 603.4 189 606.6 189C609.1 189 611.2 189.4 613 190.2ZM610.2 212.1C611.5 211.1 612.2 209.9 612.2 208.4V205.8C612.2 205.6 612.1 205.5 611.9 205.5H607.2C605.2 205.5 603.6 205.9 602.4 206.6C601.2 207.4 600.6 208.4 600.6 209.8C600.6 211 601.1 211.9 602 212.6C602.9 213.3 604.1 213.6 605.5 213.6C607.3 213.6 608.8 213.1 610.2 212.1Z" fill="var(--color-text)"></path>
    <path d="M649.4 203.8C649.4 206.4 649.1 208.8 648.4 210.9C647.6 213.4 646.2 215.3 644.3 216.7C642.4 218.1 640.1 218.8 637.5 218.8C634.8 218.8 632.7 217.8 631 215.9C630.9 215.7 630.8 215.7 630.7 215.7C630.6 215.7 630.6 215.8 630.6 216V217.5C630.6 218.1 630.3 218.4 629.7 218.4H624.9C624.3 218.4 624 218.1 624 217.5V179.7C624 179.1 624.3 178.8 624.9 178.8H629.7C630.3 178.8 630.6 179.1 630.6 179.7V191.7C630.6 191.9 630.6 191.9 630.7 192C630.8 192 630.9 192 631 191.9C632.7 190.1 634.8 189.1 637.5 189.1C640.3 189.1 642.6 189.8 644.4 191.2C646.3 192.6 647.6 194.5 648.4 197C649 198.8 649.4 201.1 649.4 203.8ZM642.6 203.9C642.6 201 642.1 198.7 641 197C639.9 195.4 638.4 194.6 636.5 194.6C634.7 194.6 633.3 195.4 632.2 197.1C631.3 198.6 630.8 200.9 630.8 203.8C630.8 206.7 631.2 208.9 632.1 210.4C633.2 212.2 634.6 213.1 636.5 213.1C638.7 213.1 640.3 212.2 641.3 210.4C642.1 208.8 642.6 206.6 642.6 203.9Z" fill="var(--color-text)"></path>
    <path d="M653.2 217.4V179.6C653.2 179 653.5 178.7 654.1 178.7H658.9C659.5 178.7 659.8 179 659.8 179.6V217.4C659.8 218 659.5 218.3 658.9 218.3H654.1C653.5 218.3 653.2 218 653.2 217.4Z" fill="var(--color-text)"></path>
    <path d="M680.8 212.4C681.8 211.9 682.7 211.1 683.3 210.2C683.5 209.9 683.7 209.7 684 209.7C684.2 209.7 684.4 209.8 684.5 209.9L687.2 212C687.5 212.3 687.6 212.5 687.6 212.7C687.6 212.9 687.5 213 687.4 213.2C686.3 214.9 684.8 216.3 682.9 217.3C681 218.3 678.8 218.8 676.4 218.8C673.4 218.8 670.9 218.1 668.9 216.7C666.9 215.3 665.4 213.3 664.5 210.8C663.7 208.7 663.4 206.4 663.4 203.8C663.4 201.2 663.6 199.2 664 197.8C664.7 195.1 666.1 193 668.3 191.4C670.4 189.8 673 189 676 189C683.1 189 687.2 192.9 688.4 200.6C688.6 201.8 688.7 203.4 688.8 205.2C688.8 205.8 688.5 206.1 687.9 206.1H670.3C670.1 206.1 670 206.2 670 206.4C670 207.4 670.1 208.2 670.3 208.9C670.7 210.3 671.5 211.3 672.7 212.1C673.9 212.9 675.3 213.2 677.1 213.2C678.5 213.2 679.7 212.9 680.8 212.4ZM672.4 195.7C671.5 196.4 670.8 197.4 670.5 198.6C670.2 199.4 670.1 200.1 670 201C670 201.2 670.1 201.3 670.3 201.3H681.7C681.9 201.3 682 201.2 682 201C681.8 199.9 681.7 199.2 681.7 199C681.4 197.7 680.7 196.6 679.7 195.9C678.7 195.1 677.4 194.7 675.9 194.7C674.5 194.7 673.4 195 672.4 195.7Z" fill="var(--color-text)"></path>
    <path d="M338.8 274.3V236.5C338.8 235.9 339.1 235.6 339.7 235.6H353.3C356 235.6 358.3 236.1 360.4 237C362.4 237.9 364 239.3 365.1 241C366.2 242.8 366.8 244.8 366.8 247.1V263.5C366.8 265.8 366.2 267.9 365.1 269.6C364 271.4 362.4 272.7 360.4 273.6C358.4 274.5 356 275 353.3 275H339.7C339.1 275.2 338.8 274.9 338.8 274.3ZM345.7 269.5H353.6C355.6 269.5 357.2 268.9 358.4 267.6C359.6 266.3 360.2 264.7 360.2 262.5V248.2C360.2 246.1 359.6 244.3 358.4 243.1C357.2 241.8 355.6 241.2 353.5 241.2H345.7C345.5 241.2 345.4 241.3 345.4 241.5V269.1C345.4 269.4 345.5 269.5 345.7 269.5Z" fill="var(--color-text)"></path>
    <path d="M388 269.2C389 268.7 389.9 267.9 390.5 267C390.7 266.7 390.9 266.5 391.2 266.5C391.4 266.5 391.6 266.6 391.7 266.7L394.4 268.8C394.7 269.1 394.8 269.3 394.8 269.5C394.8 269.7 394.7 269.8 394.6 270C393.5 271.7 392 273.1 390.1 274.1C388.2 275.1 386 275.6 383.6 275.6C380.6 275.6 378.1 274.9 376.1 273.5C374.1 272.1 372.6 270.1 371.7 267.6C370.9 265.5 370.6 263.2 370.6 260.6C370.6 258 370.8 256 371.2 254.6C371.9 251.9 373.3 249.8 375.5 248.2C377.6 246.6 380.2 245.8 383.2 245.8C390.3 245.8 394.4 249.7 395.6 257.4C395.8 258.6 395.9 260.2 396 262C396 262.6 395.7 262.9 395.1 262.9H377.5C377.3 262.9 377.2 263 377.2 263.2C377.2 264.2 377.3 265 377.5 265.7C377.9 267.1 378.7 268.1 379.9 268.9C381.1 269.7 382.5 270 384.3 270C385.7 270.1 386.9 269.8 388 269.2ZM379.6 252.5C378.7 253.2 378 254.2 377.7 255.4C377.4 256.2 377.3 256.9 377.2 257.8C377.2 258 377.3 258.1 377.5 258.1H389C389.2 258.1 389.3 258 389.3 257.8C389.1 256.7 389 256 389 255.8C388.7 254.5 388 253.4 387 252.7C386 251.9 384.7 251.5 383.2 251.5C381.7 251.5 380.6 251.8 379.6 252.5Z" fill="var(--color-text)"></path>
    <path d="M406.6 274.4L397.6 247.3C397.6 247.2 397.5 247.1 397.5 246.9C397.5 246.5 397.8 246.3 398.3 246.3H403.6C404.1 246.3 404.5 246.5 404.6 247L410 265.8C410.1 266 410.2 266 410.3 266C410.4 266 410.5 265.9 410.5 265.8L415.9 247.1C416.1 246.6 416.4 246.3 416.9 246.3L422.2 246.4C422.5 246.4 422.7 246.5 422.9 246.7C423.1 246.9 423.1 247.1 423 247.4L414.1 274.5C413.9 275 413.6 275.2 413.1 275.2H407.6C407 275.2 406.7 274.9 406.6 274.4Z" fill="var(--color-text)"></path>
    <path d="M442.4 269.2C443.4 268.7 444.3 267.9 444.9 267C445.1 266.7 445.3 266.5 445.6 266.5C445.8 266.5 446 266.6 446.1 266.7L448.8 268.8C449.1 269.1 449.2 269.3 449.2 269.5C449.2 269.7 449.1 269.8 449 270C447.9 271.7 446.4 273.1 444.5 274.1C442.6 275.1 440.4 275.6 438 275.6C435 275.6 432.5 274.9 430.5 273.5C428.5 272.1 427 270.1 426.1 267.6C425.3 265.5 425 263.2 425 260.6C425 258 425.2 256 425.6 254.6C426.3 251.9 427.7 249.8 429.9 248.2C432 246.6 434.6 245.8 437.6 245.8C444.7 245.8 448.8 249.7 450 257.4C450.2 258.6 450.3 260.2 450.4 262C450.4 262.6 450.1 262.9 449.5 262.9H432C431.8 262.9 431.7 263 431.7 263.2C431.7 264.2 431.8 265 432 265.7C432.4 267.1 433.2 268.1 434.4 268.9C435.6 269.7 437 270 438.8 270C440.1 270.1 441.3 269.8 442.4 269.2ZM434 252.5C433.1 253.2 432.4 254.2 432.1 255.4C431.8 256.2 431.7 256.9 431.6 257.8C431.6 258 431.7 258.1 431.9 258.1H443.3C443.5 258.1 443.6 258 443.6 257.8C443.4 256.7 443.3 256 443.3 255.8C443 254.5 442.3 253.4 441.3 252.7C440.3 251.9 439 251.5 437.5 251.5C436.2 251.5 435 251.8 434 252.5Z" fill="var(--color-text)"></path>
    <path d="M454.9 274.3V236.5C454.9 235.9 455.2 235.6 455.8 235.6H460.6C461.2 235.6 461.5 235.9 461.5 236.5V274.3C461.5 274.9 461.2 275.2 460.6 275.2H455.8C455.2 275.2 454.9 274.9 454.9 274.3Z" fill="var(--color-text)"></path>
    <path d="M471.3 273.4C469.1 271.9 467.6 269.8 466.8 267.1C466.2 265.3 465.8 263.1 465.8 260.7C465.8 258.3 466.1 256.1 466.7 254.3C467.6 251.7 469.1 249.6 471.2 248.1C473.4 246.6 475.9 245.9 479 245.9C481.9 245.9 484.4 246.6 486.5 248.1C488.6 249.6 490.1 251.6 491 254.2C491.7 256 492 258.2 492 260.6C492 263 491.7 265.1 491 267C490.1 269.7 488.6 271.8 486.5 273.3C484.4 274.8 481.9 275.6 479 275.6C476 275.6 473.4 274.9 471.3 273.4ZM482.6 268.8C483.6 268 484.3 266.9 484.7 265.5C485.1 264.3 485.3 262.7 485.3 260.8C485.3 259 485.1 257.4 484.7 256.1C484.3 254.7 483.6 253.6 482.5 252.8C481.5 252 480.2 251.6 478.8 251.6C477.4 251.6 476.1 252 475.1 252.8C474.1 253.6 473.4 254.7 472.9 256.1C472.5 257.4 472.3 259 472.3 260.8C472.3 262.6 472.5 264.2 472.9 265.5C473.3 266.9 474 268 475.1 268.8C476.1 269.6 477.4 270 478.9 270C480.4 270 481.6 269.6 482.6 268.8Z" fill="var(--color-text)"></path>
    <path d="M521.6 260.8C521.6 263.5 521.3 265.8 520.6 267.7C519.8 270.2 518.4 272.1 516.6 273.5C514.7 274.9 512.4 275.6 509.7 275.6C507.1 275.6 504.9 274.7 503.2 272.8C503.1 272.7 503 272.6 502.9 272.7C502.8 272.7 502.8 272.8 502.8 273V285C502.8 285.6 502.5 285.9 501.9 285.9H497.1C496.5 285.9 496.2 285.6 496.2 285V247.2C496.2 246.6 496.5 246.3 497.1 246.3H501.9C502.5 246.3 502.8 246.6 502.8 247.2V248.7C502.8 248.9 502.8 248.9 502.9 249C503 249 503.1 249 503.2 248.8C504.8 246.8 507 245.9 509.7 245.9C512.3 245.9 514.6 246.6 516.5 248C518.4 249.4 519.8 251.3 520.6 253.8C521.2 255.8 521.6 258.2 521.6 260.8ZM514.7 260.7C514.7 258 514.2 255.8 513.3 254.3C512.3 252.5 510.7 251.6 508.5 251.6C506.6 251.6 505.1 252.5 504.1 254.3C503.2 255.8 502.8 258 502.8 260.9C502.8 263.8 503.3 266.1 504.2 267.6C505.2 269.3 506.6 270.1 508.5 270.1C510.5 270.1 512 269.3 513 267.7C514.2 265.9 514.7 263.6 514.7 260.7Z" fill="var(--color-text)"></path>
    <path d="M564 248.5C565.6 250.3 566.5 252.7 566.5 255.8V274.3C566.5 274.9 566.2 275.2 565.6 275.2H560.9C560.3 275.2 560 274.9 560 274.3V257.2C560 255.5 559.5 254.1 558.6 253.1C557.7 252.1 556.4 251.6 554.9 251.6C553.3 251.6 552.1 252.1 551.1 253.1C550.1 254.1 549.6 255.5 549.6 257.2V274.4C549.6 275 549.3 275.3 548.7 275.3H544C543.4 275.3 543.1 275 543.1 274.4V257.3C543.1 255.6 542.6 254.2 541.7 253.2C540.8 252.2 539.5 251.7 538 251.7C536.6 251.7 535.4 252.1 534.5 252.9C533.6 253.7 533 254.9 532.9 256.3V274.4C532.9 275 532.6 275.3 532 275.3H527.2C526.6 275.3 526.3 275 526.3 274.4V247.3C526.3 246.7 526.6 246.4 527.2 246.4H532C532.6 246.4 532.9 246.7 532.9 247.3V248.8C532.9 249 532.9 249 533 249.1C533.1 249.1 533.2 249.1 533.3 248.9C534.9 246.9 537.3 245.9 540.4 245.9C542.3 245.9 543.9 246.3 545.3 247C546.7 247.7 547.7 248.8 548.5 250.3C548.6 250.4 548.7 250.5 548.8 250.5C548.9 250.5 549 250.4 549 250.3C549.9 248.9 551 247.8 552.5 247.1C554 246.4 555.6 246 557.4 246C560.1 245.8 562.4 246.7 564 248.5Z" fill="var(--color-text)"></path>
    <path d="M587.3 269.2C588.3 268.7 589.2 267.9 589.8 267C590 266.7 590.2 266.5 590.5 266.5C590.7 266.5 590.9 266.6 591 266.7L593.7 268.8C594 269.1 594.1 269.3 594.1 269.5C594.1 269.7 594 269.8 593.9 270C592.8 271.7 591.3 273.1 589.4 274.1C587.5 275.1 585.3 275.6 582.9 275.6C579.9 275.6 577.4 274.9 575.4 273.5C573.4 272.1 571.9 270.1 571 267.6C570.2 265.5 569.9 263.2 569.9 260.6C569.9 258 570.1 256 570.5 254.6C571.2 251.9 572.6 249.8 574.8 248.2C576.9 246.6 579.5 245.8 582.5 245.8C589.6 245.8 593.7 249.7 594.9 257.4C595.1 258.6 595.2 260.2 595.3 262C595.3 262.6 595 262.9 594.4 262.9H576.8C576.6 262.9 576.5 263 576.5 263.2C576.5 264.2 576.6 265 576.8 265.7C577.2 267.1 578 268.1 579.2 268.9C580.4 269.7 581.8 270 583.6 270C585.1 270.1 586.3 269.8 587.3 269.2ZM579 252.5C578.1 253.2 577.4 254.2 577.1 255.4C576.8 256.2 576.7 256.9 576.6 257.8C576.6 258 576.7 258.1 576.9 258.1H588.3C588.5 258.1 588.6 258 588.6 257.8C588.4 256.7 588.3 256 588.3 255.8C588 254.5 587.3 253.4 586.3 252.7C585.3 251.9 584 251.5 582.5 251.5C581.1 251.5 579.9 251.8 579 252.5Z" fill="var(--color-text)"></path>
    <path d="M620.4 248.6C622.2 250.4 623.2 252.9 623.2 256V274.3C623.2 274.9 622.9 275.2 622.3 275.2H617.5C616.9 275.2 616.6 274.9 616.6 274.3V257.3C616.6 255.6 616.1 254.2 615.1 253.1C614.1 252 612.8 251.5 611.2 251.5C609.6 251.5 608.3 252 607.3 253.1C606.3 254.2 605.8 255.6 605.8 257.3V274.3C605.8 274.9 605.5 275.2 604.9 275.2H600C599.4 275.2 599.1 274.9 599.1 274.3V247.2C599.1 246.6 599.4 246.3 600 246.3H604.8C605.4 246.3 605.7 246.6 605.7 247.2V248.7C605.7 248.9 605.7 248.9 605.8 249C605.9 249 606 249 606 248.9C607.6 246.9 609.9 245.8 613 245.8C616 245.8 618.5 246.7 620.4 248.6Z" fill="var(--color-text)"></path>
    <path d="M642.6 251.6H637.1C636.9 251.6 636.8 251.7 636.8 251.9V265.2C636.8 266.7 637.1 267.7 637.7 268.4C638.3 269 639.3 269.4 640.7 269.4H642.2C642.8 269.4 643.1 269.7 643.1 270.3V274.1C643.1 274.7 642.8 275 642.2 275.1L639.5 275.2C636.5 275.2 634.3 274.7 632.8 273.6C631.3 272.6 630.6 270.6 630.5 267.8V252C630.5 251.8 630.4 251.7 630.2 251.7H627.2C626.6 251.7 626.3 251.4 626.3 250.8V247.3C626.3 246.7 626.6 246.4 627.2 246.4H630.2C630.4 246.4 630.5 246.3 630.5 246.1V239.8C630.5 239.2 630.8 238.9 631.4 238.9H635.9C636.5 238.9 636.8 239.2 636.8 239.8V246.1C636.8 246.3 636.9 246.4 637.1 246.4H642.6C643.2 246.4 643.5 246.7 643.5 247.3V250.8C643.5 251.3 643.2 251.6 642.6 251.6Z" fill="var(--color-text)"></path>
    <path d="M660 274.3V236.5C660 235.9 660.3 235.6 660.9 235.6H674.5C677.2 235.6 679.5 236.1 681.6 237C683.6 237.9 685.2 239.3 686.3 241C687.4 242.8 688 244.8 688 247.1V263.5C688 265.8 687.4 267.9 686.3 269.6C685.2 271.4 683.6 272.7 681.6 273.6C679.6 274.5 677.2 275 674.5 275H660.9C660.3 275.2 660 274.9 660 274.3ZM666.9 269.5H674.8C676.8 269.5 678.4 268.9 679.6 267.6C680.8 266.3 681.4 264.7 681.4 262.5V248.2C681.4 246.1 680.8 244.3 679.6 243.1C678.4 241.8 676.8 241.2 674.7 241.2H666.9C666.7 241.2 666.6 241.3 666.6 241.5V269.1C666.6 269.4 666.7 269.5 666.9 269.5Z" fill="var(--color-text)"></path>
    <path d="M710.6 247.1C712.4 247.9 713.8 249.1 714.8 250.5C715.8 252 716.3 253.6 716.3 255.4V274.2C716.3 274.8 716 275.1 715.4 275.1H710.6C710 275.1 709.7 274.8 709.7 274.2V272.8C709.7 272.7 709.7 272.6 709.6 272.5C709.5 272.5 709.4 272.5 709.3 272.6C707.3 274.6 704.5 275.5 701.1 275.5C698.3 275.5 696 274.8 694.2 273.4C692.4 272 691.5 269.8 691.5 267C691.5 264.1 692.5 261.8 694.6 260.1C696.7 258.5 699.6 257.6 703.3 257.6H709.3C709.5 257.6 709.6 257.5 709.6 257.3V256C709.6 254.5 709.2 253.4 708.3 252.6C707.4 251.8 706.1 251.4 704.4 251.4C703.1 251.4 702 251.6 701.1 252.1C700.2 252.6 699.6 253.2 699.3 254.1C699.1 254.6 698.8 254.9 698.3 254.8L693.2 254.2C692.9 254.2 692.7 254.1 692.5 253.9C692.3 253.8 692.3 253.6 692.3 253.4C692.6 251.1 693.9 249.3 696.1 247.9C698.3 246.5 701 245.8 704.2 245.8C706.6 245.8 708.7 246.3 710.6 247.1ZM707.7 269C709 268 709.7 266.8 709.7 265.3V262.7C709.7 262.5 709.6 262.4 709.4 262.4H704.7C702.7 262.4 701.1 262.8 699.9 263.5C698.7 264.3 698.1 265.3 698.1 266.7C698.1 267.9 698.6 268.8 699.5 269.5C700.4 270.2 701.6 270.5 703 270.5C704.8 270.4 706.4 269.9 707.7 269Z" fill="var(--color-text)"></path>
    <path d="M735.2 251.6H729.7C729.5 251.6 729.4 251.7 729.4 251.9V265.2C729.4 266.7 729.7 267.7 730.3 268.4C730.9 269 731.9 269.4 733.3 269.4H734.8C735.4 269.4 735.7 269.7 735.7 270.3V274.1C735.7 274.7 735.4 275 734.8 275.1L732.1 275.2C729.1 275.2 726.9 274.7 725.4 273.6C723.9 272.6 723.2 270.6 723.1 267.8V252C723.1 251.8 723 251.7 722.8 251.7H719.8C719.2 251.7 718.9 251.4 718.9 250.8V247.3C718.9 246.7 719.2 246.4 719.8 246.4H722.8C723 246.4 723.1 246.3 723.1 246.1V239.8C723.1 239.2 723.4 238.9 724 238.9H728.5C729.1 238.9 729.4 239.2 729.4 239.8V246.1C729.4 246.3 729.5 246.4 729.7 246.4H735.2C735.8 246.4 736.1 246.7 736.1 247.3V250.8C736.1 251.3 735.8 251.6 735.2 251.6Z" fill="var(--color-text)"></path>
    <path d="M757.9 247.1C759.7 247.9 761.1 249.1 762.1 250.5C763.1 252 763.6 253.6 763.6 255.4V274.2C763.6 274.8 763.3 275.1 762.7 275.1H758C757.4 275.1 757.1 274.8 757.1 274.2V272.8C757.1 272.7 757.1 272.6 757 272.5C756.9 272.5 756.8 272.5 756.7 272.6C754.7 274.6 751.9 275.5 748.5 275.5C745.7 275.5 743.4 274.8 741.6 273.4C739.8 272 738.9 269.8 738.9 267C738.9 264.1 739.9 261.8 742 260.1C744.1 258.5 747 257.6 750.7 257.6H756.7C756.9 257.6 757 257.5 757 257.3V256C757 254.5 756.6 253.4 755.7 252.6C754.8 251.8 753.5 251.4 751.8 251.4C750.5 251.4 749.4 251.6 748.5 252.1C747.6 252.6 747 253.2 746.7 254.1C746.5 254.6 746.2 254.9 745.7 254.8L740.6 254.2C740.3 254.2 740.1 254.1 739.9 253.9C739.7 253.8 739.7 253.6 739.7 253.4C740 251.1 741.3 249.3 743.5 247.9C745.7 246.5 748.4 245.8 751.6 245.8C754 245.8 756.1 246.3 757.9 247.1ZM755.1 269C756.4 268 757.1 266.8 757.1 265.3V262.7C757.1 262.5 757 262.4 756.8 262.4H752C750 262.4 748.4 262.8 747.2 263.5C746 264.3 745.4 265.3 745.4 266.7C745.4 267.9 745.9 268.8 746.8 269.5C747.7 270.2 748.9 270.5 750.3 270.5C752.1 270.4 753.7 269.9 755.1 269Z" fill="var(--color-text)"></path>
  </g>
  <g class="logo-main__title">
    <path d="M349.7 78.5C346.3 76.7 343.6 74.2 341.8 71C339.9 67.8 339 64.1 339 59.9V40.5C339 36.3 339.9 32.6 341.8 29.3C343.7 26.1 346.3 23.6 349.7 21.8C353.1 20 357 19.2 361.5 19.2C365.9 19.2 369.8 20.1 373.2 21.8C376.6 23.5 379.2 25.9 381.1 28.9C383 31.9 383.9 35.2 383.9 38.8V39C383.9 40 383.4 40.5 382.4 40.5H373.1C372.6 40.5 372.3 40.4 372 40.3C371.7 40.2 371.6 40 371.6 39.8V39.2C371.6 36.5 370.7 34.3 368.8 32.5C366.9 30.7 364.5 29.8 361.4 29.8C358.3 29.8 355.8 30.8 353.9 32.7C352 34.6 351.1 37.2 351.1 40.3V60.4C351.1 63.5 352.1 66 354.1 68C356.1 69.9 358.7 70.9 361.8 70.9C364.8 70.9 367.2 70.1 369 68.5C370.8 66.9 371.7 64.7 371.7 61.9V58.1C371.7 57.8 371.5 57.6 371.2 57.6H362C361 57.6 360.5 57.1 360.5 56.1V49C360.5 48 361 47.5 362 47.5H382.3C383.3 47.5 383.8 48 383.8 49V60C383.8 64.4 382.9 68.2 381 71.4C379.1 74.6 376.5 77.1 373.1 78.8C369.7 80.5 365.8 81.4 361.3 81.4C357.1 81.2 353.1 80.3 349.7 78.5Z" fill="var(--color-text)"></path>
    <path d="M390.2 79V21.4C390.2 20.4 390.7 19.9 391.7 19.9H401C402 19.9 402.5 20.4 402.5 21.4V79C402.5 80 402 80.5 401 80.5H391.7C390.7 80.5 390.2 80 390.2 79Z" fill="var(--color-text)"></path>
    <path d="M415.6 77.4C412.1 74.9 409.8 71.4 408.5 67C407.7 64.3 407.3 61.3 407.3 58.2C407.3 54.7 407.7 51.6 408.6 49C409.9 44.7 412.3 41.4 415.8 39C419.2 36.6 423.4 35.4 428.3 35.4C433 35.4 437.1 36.6 440.5 39C443.9 41.4 446.2 44.7 447.6 48.9C448.5 51.6 448.9 54.6 448.9 58C448.9 61 448.5 63.9 447.8 66.7C446.5 71.2 444.1 74.7 440.6 77.3C437.2 79.9 433 81.1 428.2 81.1C423.3 81.2 419.1 79.9 415.6 77.4ZM433 69C434.3 67.8 435.3 66.3 435.9 64.2C436.4 62.6 436.6 60.6 436.6 58.1C436.6 55.7 436.4 53.6 435.9 52C435.3 50 434.4 48.5 433 47.4C431.7 46.3 430 45.8 428.1 45.8C426.2 45.8 424.6 46.3 423.2 47.4C421.9 48.5 420.9 50 420.3 52C419.8 53.7 419.6 55.7 419.6 58.1C419.6 60.5 419.8 62.5 420.3 64.2C420.9 66.2 421.8 67.8 423.2 69C424.6 70.2 426.2 70.7 428.2 70.7C430.1 70.7 431.6 70.1 433 69Z" fill="var(--color-text)"></path>
    <path d="M493.6 58.1C493.6 62.3 493.1 65.7 492.1 68.5C490.9 72.3 488.8 75.4 485.8 77.7C482.8 80 479.3 81.2 475.3 81.2C471.1 81.2 467.8 79.6 465.4 76.5C465.3 76.3 465.2 76.3 465 76.3C464.9 76.3 464.8 76.5 464.8 76.7V79C464.8 80 464.3 80.5 463.3 80.5H454C453 80.5 452.5 80 452.5 79V21.4C452.5 20.4 453 19.9 454 19.9H463.3C464.3 19.9 464.8 20.4 464.8 21.4V39.2C464.8 39.4 464.9 39.6 465 39.6C465.1 39.7 465.3 39.6 465.4 39.4C467.7 36.6 471 35.2 475.3 35.2C479.2 35.2 482.7 36.3 485.6 38.5C488.5 40.7 490.6 43.6 491.9 47.3C493.1 50.2 493.6 53.8 493.6 58.1ZM480.8 58.4C480.8 54.7 480.1 51.6 478.7 49.3C477.3 47.1 475.3 46 472.6 46C470.2 46 468.2 47.1 466.8 49.4C465.6 51.5 465 54.5 465 58.3C465 61.9 465.6 64.7 466.7 66.9C468.1 69.4 470.1 70.6 472.6 70.6C475.4 70.6 477.5 69.4 478.9 66.9C480.2 64.6 480.8 61.8 480.8 58.4Z" fill="var(--color-text)"></path>
    <path d="M527 37.3C530 38.6 532.3 40.4 533.9 42.6C535.5 44.8 536.4 47.4 536.4 50.1V79C536.4 80 535.9 80.5 534.9 80.5H525.6C524.6 80.5 524.1 80 524.1 79V76.9C524.1 76.7 524 76.5 523.9 76.5C523.8 76.5 523.6 76.5 523.5 76.7C520.8 79.6 516.9 81.1 511.6 81.1C507.1 81.1 503.6 80 500.8 77.8C498.1 75.6 496.7 72.4 496.7 68.1C496.7 63.7 498.3 60.2 501.4 57.8C504.5 55.4 509 54.1 514.8 54.1H523.6C523.9 54.1 524.1 53.9 524.1 53.6V51.8C524.1 49.9 523.5 48.4 522.3 47.3C521.1 46.2 519.4 45.7 517.1 45.7C515.4 45.7 513.9 46 512.8 46.6C511.7 47.2 510.9 48 510.5 49C510.2 49.8 509.6 50.2 508.8 50.1L499.2 48.9C498.7 48.8 498.4 48.7 498.1 48.5C497.8 48.3 497.7 48 497.8 47.7C498.1 45.3 499.1 43.2 500.8 41.3C502.5 39.4 504.8 37.9 507.6 36.8C510.4 35.7 513.5 35.2 516.9 35.2C520.7 35.3 524 36 527 37.3ZM521.5 70.1C523.2 68.8 524.1 67.1 524.1 65V62C524.1 61.7 523.9 61.5 523.6 61.5H517.4C514.8 61.5 512.7 62 511.2 63C509.7 64 508.9 65.4 508.9 67.2C508.9 68.8 509.5 70 510.6 70.9C511.7 71.8 513.2 72.2 515.1 72.2C517.7 72.1 519.8 71.4 521.5 70.1Z" fill="var(--color-text)"></path>
    <path d="M543.4 79V21.4C543.4 20.4 543.9 19.9 544.9 19.9H554.2C555.2 19.9 555.7 20.4 555.7 21.4V79C555.7 80 555.2 80.5 554.2 80.5H544.9C543.9 80.5 543.4 80 543.4 79Z" fill="var(--color-text)"></path>
    <path d="M375.3 100C378.2 101.6 380.4 103.8 382 106.6C383.6 109.5 384.4 112.7 384.4 116.4C384.4 120 383.6 123.2 381.9 126C380.3 128.8 377.9 130.9 375 132.4C372 133.9 368.6 134.7 364.7 134.7H352.5C352.2 134.7 352 134.9 352 135.2V156.7C352 157.7 351.5 158.2 350.5 158.2H341.2C340.2 158.2 339.7 157.7 339.7 156.7V99C339.7 98 340.2 97.5 341.2 97.5H365.2C369.1 97.6 372.4 98.4 375.3 100ZM369.9 122.7C371.5 121.2 372.3 119.2 372.3 116.7C372.3 114.2 371.5 112.1 369.9 110.6C368.3 109 366.1 108.3 363.5 108.3H352.6C352.3 108.3 352.1 108.5 352.1 108.8V124.5C352.1 124.8 352.3 125 352.6 125H363.5C366.1 125 368.2 124.2 369.9 122.7Z" fill="var(--color-text)"></path>
    <path d="M416 115.1C419 116.4 421.3 118.2 422.9 120.4C424.5 122.6 425.4 125.2 425.4 127.9V156.8C425.4 157.8 424.9 158.3 423.9 158.3H414.6C413.6 158.3 413.1 157.8 413.1 156.8V154.7C413.1 154.5 413 154.3 412.9 154.3C412.8 154.3 412.6 154.3 412.5 154.5C409.8 157.4 405.9 158.9 400.6 158.9C396.1 158.9 392.6 157.8 389.8 155.6C387.1 153.4 385.7 150.2 385.7 145.9C385.7 141.5 387.3 138 390.4 135.6C393.5 133.1 398 131.9 403.8 131.9H412.6C412.9 131.9 413.1 131.7 413.1 131.4V129.6C413.1 127.7 412.5 126.2 411.3 125.1C410.1 124 408.4 123.5 406.1 123.5C404.4 123.5 402.9 123.8 401.8 124.4C400.7 125 399.9 125.8 399.5 126.8C399.2 127.6 398.6 128 397.8 127.9L388.2 126.7C387.7 126.6 387.4 126.5 387.1 126.3C386.8 126.1 386.7 125.8 386.8 125.5C387.1 123.1 388.1 121 389.8 119.1C391.5 117.2 393.8 115.7 396.6 114.6C399.4 113.5 402.5 113 405.9 113C409.7 113.1 413.1 113.8 416 115.1ZM410.6 147.9C412.3 146.6 413.2 144.9 413.2 142.8V139.8C413.2 139.5 413 139.3 412.7 139.3H406.5C403.9 139.3 401.8 139.8 400.3 140.8C398.8 141.8 398 143.2 398 145C398 146.6 398.6 147.8 399.7 148.7C400.8 149.6 402.3 150 404.2 150C406.7 149.9 408.8 149.2 410.6 147.9Z" fill="var(--color-text)"></path>
    <path d="M458.4 114.2C459.1 114.5 459.4 115.2 459.2 116L457.6 125.1C457.5 125.6 457.4 125.9 457.1 126.1C456.8 126.2 456.4 126.2 455.8 126.1C454.9 125.9 454 125.8 453.3 125.8C452.9 125.8 452.2 125.9 451.3 126C449.2 126.2 447.5 126.9 446 128.3C444.6 129.7 443.8 131.5 443.8 133.7V156.9C443.8 157.9 443.3 158.4 442.3 158.4H433C432 158.4 431.5 157.9 431.5 156.9V115.4C431.5 114.4 432 113.9 433 113.9H442.3C443.3 113.9 443.8 114.4 443.8 115.4V118.1C443.8 118.3 443.9 118.5 444 118.5C444.1 118.6 444.3 118.5 444.4 118.3C446.7 115 449.8 113.3 453.8 113.3C455.7 113.2 457.2 113.6 458.4 114.2Z" fill="var(--color-text)"></path>
    <path d="M489 123.6H481.2C480.9 123.6 480.7 123.8 480.7 124.1V142C480.7 143.9 481.1 145.3 481.9 146.2C482.7 147.1 483.9 147.5 485.7 147.5H488.1C489.1 147.5 489.6 148 489.6 149V156.4C489.6 157.3 489.1 157.8 488.1 158C485.9 158.1 484.3 158.2 483.3 158.2C478.5 158.2 474.9 157.4 472.5 155.8C470.1 154.2 468.9 151.2 468.9 146.8V124.1C468.9 123.8 468.7 123.6 468.4 123.6H464C463 123.6 462.5 123.1 462.5 122.1V115.3C462.5 114.3 463 113.8 464 113.8H468.4C468.7 113.8 468.9 113.6 468.9 113.3V103.5C468.9 102.5 469.4 102 470.4 102H479.3C480.3 102 480.8 102.5 480.8 103.5V113.3C480.8 113.6 481 113.8 481.3 113.8H489.1C490.1 113.8 490.6 114.3 490.6 115.3V122.1C490.4 123.1 489.9 123.6 489 123.6Z" fill="var(--color-text)"></path>
    <path d="M530.8 117.4C533.6 120.2 535.1 124.1 535.1 128.9V156.8C535.1 157.8 534.6 158.3 533.6 158.3H524.3C523.3 158.3 522.8 157.8 522.8 156.8V131.4C522.8 129.1 522.2 127.2 520.9 125.8C519.6 124.4 517.9 123.6 515.8 123.6C513.7 123.6 511.9 124.3 510.6 125.8C509.3 127.2 508.6 129.1 508.6 131.4V156.8C508.6 157.8 508.1 158.3 507.1 158.3H497.8C496.8 158.3 496.3 157.8 496.3 156.8V115.3C496.3 114.3 496.8 113.8 497.8 113.8H507.1C508.1 113.8 508.6 114.3 508.6 115.3V117.7C508.6 117.9 508.7 118.1 508.8 118.1C508.9 118.2 509 118.1 509.1 117.9C511.5 114.7 515 113.1 519.6 113.1C524.2 113.1 528 114.5 530.8 117.4Z" fill="var(--color-text)"></path>
    <path d="M570.7 144.7C571 144.3 571.4 144.1 571.8 144.1C572.1 144.1 572.5 144.2 572.8 144.5L577.7 149.3C578 149.6 578.2 150 578.2 150.3C578.2 150.7 578.1 151 577.9 151.3C576 153.7 573.5 155.5 570.6 156.9C567.6 158.3 564.4 158.9 560.8 158.9C555.5 158.9 551.1 157.5 547.6 154.8C544.1 152.1 541.7 148.4 540.5 143.6C539.8 141.1 539.5 138.4 539.5 135.6C539.5 132.3 539.8 129.4 540.5 127.1C541.7 122.8 544 119.4 547.5 116.8C551 114.2 555.2 112.9 560 112.9C565.7 112.9 570.2 114.6 573.5 117.9C576.8 121.2 579 125.9 580 132C580.2 133.9 580.4 136 580.5 138.3C580.5 139.3 580 139.8 579 139.8H552.4C552.1 139.8 551.9 140 551.9 140.3C552.1 141.5 552.3 142.4 552.5 143C553.1 144.8 554.2 146.2 555.9 147.1C557.6 148.1 559.7 148.5 562.1 148.5C565.8 148.5 568.7 147.2 570.7 144.7ZM555.1 124.9C553.9 125.8 553 127 552.5 128.7C552.2 129.8 552 130.5 552 130.9C551.9 131.2 552.1 131.4 552.4 131.4H567.2C567.5 131.4 567.6 131.3 567.6 131.1C567.6 130.5 567.5 129.8 567.3 129.1C566.8 127.4 565.9 126.1 564.6 125.1C563.3 124.1 561.7 123.6 559.7 123.6C557.9 123.6 556.3 124 555.1 124.9Z" fill="var(--color-text)"></path>
    <path d="M612.2 114.2C612.9 114.5 613.2 115.2 613 116L611.4 125.1C611.3 125.6 611.2 125.9 610.9 126.1C610.6 126.2 610.2 126.2 609.6 126.1C608.7 125.9 607.8 125.8 607.1 125.8C606.7 125.8 606 125.9 605.1 126C603 126.2 601.3 126.9 599.8 128.3C598.4 129.7 597.6 131.5 597.6 133.7V156.9C597.6 157.9 597.1 158.4 596.1 158.4H586.8C585.8 158.4 585.3 157.9 585.3 156.9V115.4C585.3 114.4 585.8 113.9 586.8 113.9H596.1C597.1 113.9 597.6 114.4 597.6 115.4V118.1C597.6 118.3 597.7 118.5 597.8 118.5C597.9 118.6 598.1 118.5 598.2 118.3C600.5 115 603.6 113.3 607.6 113.3C609.5 113.2 611 113.6 612.2 114.2Z" fill="var(--color-text)"></path>
    <path d="M624.2 157.2C621.3 156.1 619.1 154.6 617.5 152.6C615.9 150.6 615.2 148.4 615.2 145.9V145.5C615.2 144.5 615.7 144 616.7 144H625.5C626.5 144 627 144.2 627 144.5V145.1C627 146.4 627.7 147.5 629.1 148.3C630.5 149.2 632.3 149.6 634.4 149.6C636.4 149.6 638 149.2 639.2 148.5C640.4 147.8 641 146.8 641 145.6C641 144.6 640.5 143.8 639.4 143.3C638.4 142.8 636.7 142.2 634.3 141.7C631.5 141 629.4 140.3 628 139.7C624.2 138.4 621.3 136.9 619.1 135C616.9 133.2 615.8 130.5 615.8 127C615.8 122.7 617.5 119.3 620.8 116.8C624.2 114.3 628.6 113 634 113C637.7 113 641 113.6 643.8 114.8C646.6 116 648.8 117.6 650.3 119.8C651.8 121.9 652.6 124.4 652.6 127.1C652.6 127.4 652.5 127.6 652.2 127.8C651.9 128 651.6 128.1 651.1 128.1H642.6C641.6 128.1 641.1 127.9 641.1 127.6V127.1C641.1 125.8 640.5 124.8 639.2 123.9C637.9 123 636.2 122.6 634.1 122.6C632.2 122.6 630.6 122.9 629.4 123.6C628.2 124.3 627.5 125.2 627.5 126.5C627.5 127.7 628.1 128.5 629.3 129.1C630.5 129.7 632.4 130.3 635.2 130.9C636.9 131.2 638.5 131.7 640.1 132.2C644.3 133.4 647.5 135 649.9 136.9C652.3 138.8 653.5 141.6 653.5 145.2C653.5 149.5 651.8 152.8 648.4 155.2C645 157.6 640.4 158.8 634.7 158.8C630.5 158.9 627.1 158.3 624.2 157.2Z" fill="var(--color-text)"></path>
    <path d="M693 117.4C695.8 120.2 697.3 124.1 697.3 128.9V156.8C697.3 157.8 696.8 158.3 695.8 158.3H686.5C685.5 158.3 685 157.8 685 156.8V131.4C685 129.1 684.4 127.2 683.1 125.8C681.8 124.4 680.1 123.6 678 123.6C675.9 123.6 674.1 124.3 672.8 125.8C671.5 127.2 670.8 129.1 670.8 131.4V156.8C670.8 157.8 670.3 158.3 669.3 158.3H660C659 158.3 658.5 157.8 658.5 156.8V99.2C658.5 98.2 659 97.7 660 97.7H669.3C670.3 97.7 670.8 98.2 670.8 99.2V117.7C670.8 117.9 670.9 118.1 671 118.1C671.1 118.2 671.2 118.1 671.3 117.9C673.7 114.7 677.2 113.1 681.8 113.1C686.5 113.1 690.2 114.5 693 117.4Z" fill="var(--color-text)"></path>
    <path d="M704.9 107.5C703.5 106.1 702.8 104.4 702.8 102.3C702.8 100.2 703.5 98.4 704.9 97.1C706.3 95.7 708.1 95.1 710.3 95.1C712.6 95.1 714.4 95.8 715.7 97.1C717.1 98.4 717.7 100.2 717.7 102.4C717.7 104.6 717 106.4 715.7 107.7C714.3 109 712.5 109.7 710.3 109.7C708.1 109.6 706.3 108.9 704.9 107.5ZM704.2 156.8V115.3C704.2 114.3 704.7 113.8 705.7 113.8H715C716 113.8 716.5 114.3 716.5 115.3V156.8C716.5 157.8 716 158.3 715 158.3H705.7C704.7 158.3 704.2 157.8 704.2 156.8Z" fill="var(--color-text)"></path>
    <path d="M765 136.2C765 140.5 764.4 144 763.4 146.9C762.1 150.6 760 153.5 757.1 155.7C754.2 157.9 750.7 159 746.8 159C742.5 159 739.2 157.6 736.9 154.8C736.8 154.6 736.7 154.6 736.5 154.6C736.4 154.7 736.3 154.8 736.3 155V172.8C736.3 173.8 735.8 174.3 734.8 174.3H725.5C724.5 174.3 724 173.8 724 172.8V115.2C724 114.2 724.5 113.7 725.5 113.7H734.8C735.8 113.7 736.3 114.2 736.3 115.2V117.5C736.3 117.7 736.4 117.9 736.5 117.9C736.6 117.9 736.8 117.9 736.9 117.7C739.3 114.6 742.6 113 746.8 113C750.7 113 754.2 114.2 757.3 116.5C760.3 118.8 762.4 121.9 763.6 125.7C764.5 128.6 765 132.1 765 136.2ZM752.1 136C752.1 132.6 751.5 129.8 750.3 127.5C748.9 125 746.8 123.8 744 123.8C741.5 123.8 739.5 125 738.1 127.5C736.9 129.6 736.4 132.5 736.4 136.1C736.4 139.8 737 142.8 738.2 145C739.6 147.2 741.6 148.4 744 148.4C746.7 148.4 748.7 147.3 750.1 145.1C751.5 142.7 752.1 139.7 752.1 136Z" fill="var(--color-text)"></path>
  </g>
  <g class="logo-main__symbol">
    <path d="M163.2 207.4C159 208 154.8 208.3 150.5 208.4C150 208.4 149.5 208.4 149 208.4H148.8C148.7 208.4 148.6 208.4 148.5 208.4C148.4 208.4 148.3 208.4 148.2 208.4C147.9 208.4 147.7 208.4 147.4 208.4C142.9 208.3 138.6 207.7 134.4 206.6L133.9 206.5L133.2 206.3C129 205.2 124.9 203.6 121.1 201.6L119.3 200.6C115.8 198.6 112.4 196.2 109.4 193.6C109.3 193.5 109.1 193.4 109 193.2C108.4 192.6 107.7 192 107.1 191.4C104.4 188.8 102 186 99.9 183C99.7 182.7 99.5 182.4 99.3 182.1C98.8 181.4 98.3 180.6 97.9 179.9C97.8 179.8 97.7 179.6 97.6 179.5C95.9 176.7 94.4 173.7 93.1 170.5C92.7 169.6 92.4 168.7 92.1 167.8C91.9 167.2 91.7 166.5 91.5 165.9C91.5 165.8 91.4 165.7 91.4 165.6C90.6 162.8 89.9 159.8 89.5 156.8L89 150.4C89 149.8 89 149.2 89 148.5C89 146.4 89.1 144.4 89.3 142.4C89.5 140.2 89.9 138.1 90.3 136C90.4 135.7 90.4 135.4 90.5 135.1C91 132.8 91.7 130.6 92.5 128.4C93.1 126.8 93.8 125.1 94.5 123.6C94.8 123 95 122.5 95.3 121.9C95.5 121.5 95.7 121.1 95.9 120.7C96.8 118.9 97.9 117.2 99 115.5C99.3 115 99.6 114.6 100 114.1C100.3 113.7 100.5 113.4 100.8 113C102.1 111.2 103.5 109.6 105 108C106.1 106.8 107.3 105.6 108.6 104.5C111.2 102.1 114 100 117.1 98.1C118.2 97.4 119.2 96.8 120.3 96.2C128.3 92 137 89.3 146.5 88.9C146 88.9 137.5 89.1 130.8 90.5C130.6 90.5 130.5 90.6 130.3 90.6C129.9 90.7 129.6 90.7 129.2 90.8C128.8 90.9 128.3 91 127.9 91.1C127.4 91.2 126.9 91.3 126.4 91.4C126.3 91.4 126.3 91.4 126.2 91.4C125.6 91.5 125.1 91.7 124.6 91.8C124.5 91.8 124.4 91.8 124.3 91.9C123.9 92 123.4 92.1 123 92.2C122.2 92.4 121.5 92.6 120.7 92.8C120.2 93 119.6 93.1 119.1 93.3C118.5 93.5 118 93.6 117.4 93.8C116.7 94 116 94.3 115.3 94.5C114.9 94.6 114.5 94.8 114.1 94.9C113.4 95.1 112.7 95.4 112.1 95.6C111.5 95.8 110.9 96 110.4 96.3C109.8 96.5 109.3 96.8 108.7 97C108.2 97.2 107.6 97.5 107.1 97.7C106.5 98 105.9 98.2 105.4 98.5C104.5 98.9 103.5 99.4 102.6 99.8C102.1 100 101.7 100.2 101.3 100.5C100.9 100.7 100.6 100.9 100.2 101.1C99.8 101.3 99.5 101.5 99.1 101.7C98.7 101.9 98.3 102.1 97.9 102.4C97.6 102.6 97.3 102.8 96.9 103C96.8 103.1 96.7 103.1 96.6 103.2C96.5 103.3 96.4 103.3 96.3 103.4C95.7 103.7 95.2 104.1 94.6 104.4C94.3 104.6 93.9 104.8 93.6 105C93.2 105.2 92.8 105.5 92.4 105.7C92.1 105.9 91.8 106.1 91.5 106.3C91.3 106.5 91 106.6 90.8 106.8C90.8 106.8 90.8 106.8 90.7 106.8C90.4 107 90.1 107.2 89.8 107.4C89.1 107.9 88.5 108.3 87.8 108.8C87.4 109.1 86.9 109.4 86.5 109.8C85.7 110.4 85 110.9 84.2 111.5C83.8 111.8 83.4 112.1 83 112.4C82.1 113.2 81.1 113.9 80.2 114.7C79.9 115 79.6 115.2 79.3 115.5L76.2 118.4C73.7 120.8 71.4 123.3 69.2 125.9C68.9 126.2 68.6 126.6 68.4 126.9C66.6 129.1 64.9 131.3 63.3 133.6L62.9 134.1C60.4 137.7 58.1 141.6 56.1 145.5C55.5 146.6 55 147.6 54.5 148.7C53.6 150.6 52.7 152.6 52 154.6L64 155.4L50.8 157.9C48.3 164.9 46.5 172.3 45.5 179.9L72.3 174.8L44.9 187.7C44.8 189.5 44.8 191.2 44.8 193C44.8 198.3 45.2 203.6 46 208.7L84.8 190.5L48.5 220.4C50.2 226.7 52.5 232.8 55.4 238.6L100 201.8L63 251.8C66.4 256.7 70.2 261.3 74.4 265.5L116.3 208L88.6 277.6C93 280.7 97.8 283.5 102.7 286L132.6 210.9L122.2 293.3C127.2 294.6 132.3 295.6 137.6 296.1L148.4 210.6L159.3 296.3C164.4 296 169.4 295.4 174.3 294.5L163.2 207.4Z" fill="var(--color-isotype-2)"></path>
    <path d="M276.4 72.3L252 87.8C251.6 85.6 251.2 83.5 250.7 81.3L273.1 67.1C274.2 68.8 275.3 70.5 276.4 72.3Z" fill="var(--color-isotype-2)"></path>
    <path d="M252.7 42.5L240.8 55.1C240 53.6 239.1 52 238.2 50.6L249 39.1C250.3 40.2 251.5 41.3 252.7 42.5Z" fill="var(--color-isotype-2)"></path>
    <path d="M222.2 19.7L218.3 26.8C217.3 25.9 216.3 25.1 215.3 24.2L218.8 17.8C220 18.4 221.1 19 222.2 19.7Z" fill="var(--color-isotype-2)"></path>
    <path d="M207.3 190.7C206.5 191.3 205.6 191.8 204.8 192.3C204.5 192.5 204.1 192.7 203.8 192.9C203.1 193.3 202.5 193.7 201.8 194.1C201.7 194.2 201.6 194.2 201.5 194.3C201.2 194.5 200.9 194.7 200.5 194.9C200.1 195.1 199.7 195.4 199.3 195.6C198.9 195.8 198.6 196 198.2 196.2C197.8 196.4 197.5 196.6 197.1 196.8C196.9 196.9 196.7 197 196.5 197.1L258.7 248.4C261.3 245.5 263.9 242.5 266.3 239.5L207.3 190.7Z" fill="var(--color-isotype-2)"></path>
    <path d="M236.3 161.6C236 162.1 235.6 162.6 235.3 163.2L235 163.6L234.9 163.7C233.4 165.9 231.8 168 230.1 170.1L293.7 182.2C294.4 179.1 295 176 295.5 172.9L236.3 161.6Z" fill="var(--color-isotype-2)"></path>
    <path d="M222.3 178.5C222.2 178.6 222 178.7 221.9 178.9L218.8 181.8C218.5 182.1 218.2 182.3 217.9 182.6C217 183.4 216.1 184.2 215.1 184.9C214.7 185.2 214.3 185.5 213.9 185.8C213.8 185.9 213.6 186 213.5 186.1L280.4 217.5C282 214.4 283.6 211.2 285 208L222.3 178.5Z" fill="var(--color-isotype-2)"></path>
    <path d="M244 147.8L297.5 144.4C297.4 141.6 297.3 138.8 297 136.1L247.5 139.2C247.2 140.5 244.8 146.1 244 147.8Z" fill="var(--color-isotype-2)"></path>
    <path d="M252.4 119.7L291.6 107C290.9 104.7 290.2 102.4 289.4 100.1L253 112C252.9 112.2 252.4 119.7 252.4 119.7Z" fill="var(--color-isotype-2)"></path>
    <path d="M252.7 117.4H252.5C252.4 118.7 252.3 119.7 252.3 119.7C252.5 118.9 252.6 118.2 252.7 117.4Z" fill="var(--color-isotype-2)"></path>
    <path d="M177.5 204.4C174.7 205.2 171.8 205.8 168.9 206.4C167.7 206.6 166.6 206.8 165.4 207C164.8 207.1 164.2 207.2 163.6 207.3L196.1 289C200.5 287.5 204.9 285.8 209.1 284L177.5 204.4Z" fill="var(--color-isotype-2)"></path>
    <path d="M192.2 199.1C191.9 199.2 191.6 199.4 191.3 199.5C190.8 199.7 190.2 200 189.7 200.2C189.1 200.4 188.6 200.7 188 200.9C187.4 201.1 186.9 201.4 186.3 201.6C185.6 201.9 184.9 202.1 184.3 202.3C183.9 202.4 183.5 202.6 183.1 202.7C182.4 202.9 181.7 203.2 181 203.4C180.6 203.5 180.2 203.6 179.8 203.8L230 272.7C233.6 270.4 237.1 267.9 240.4 265.3L192.2 199.1Z" fill="var(--color-isotype-2)"></path>
  </g>
  <g class="logo-main__symbol-2">
    <path d="M21.7 224.7L46.1 209.2C46.5 211.4 46.9 213.5 47.4 215.7L25 229.9C23.8 228.2 22.8 226.5 21.7 224.7Z" fill="var(--color-isotype)"></path>
    <path d="M45.4 254.5L57.3 241.9C58.1 243.4 59 245 59.9 246.4L49 257.9C47.8 256.8 46.6 255.7 45.4 254.5Z" fill="var(--color-isotype)"></path>
    <path d="M75.8 277.4L79.7 270.3C80.7 271.2 81.7 272 82.7 272.9L79.2 279.3C78.1 278.6 76.9 278 75.8 277.4Z" fill="var(--color-isotype)"></path>
    <path d="M93.3 104.7C93.6 104.5 94 104.3 94.3 104.1C95 103.7 95.6 103.3 96.3 102.9C96.4 102.8 96.5 102.8 96.6 102.7C96.9 102.5 97.2 102.3 97.6 102.1C98 101.9 98.4 101.6 98.8 101.4C99.2 101.2 99.5 101 99.9 100.8C100.3 100.6 100.6 100.4 101 100.2C101.2 100.1 101.4 100 101.6 99.9L39.4 48.6C36.8 51.5 34.2 54.5 31.8 57.5L90.8 106.2C91.6 105.7 92.5 105.2 93.3 104.7Z" fill="var(--color-isotype)"></path>
    <path d="M106.8 97.5C107.3 97.3 107.9 97 108.4 96.8C109 96.6 109.5 96.3 110.1 96.1C110.7 95.9 111.2 95.6 111.8 95.4C112.5 95.1 113.2 94.9 113.8 94.7C114.2 94.6 114.6 94.4 115 94.3C115.7 94.1 116.4 93.8 117.1 93.6C117.5 93.5 117.9 93.4 118.3 93.2L68 24.3C64.4 26.6 60.9 29.1 57.6 31.7L105.8 97.9C106.1 97.8 106.5 97.7 106.8 97.5Z" fill="var(--color-isotype)"></path>
    <path d="M122.7 92C123.1 91.9 123.6 91.8 124 91.7C124.1 91.7 124.2 91.7 124.3 91.6C124.8 91.5 125.4 91.3 125.9 91.2C126 91.2 126 91.2 126.1 91.2C126.6 91.1 127.1 91 127.6 90.9C128 90.8 128.5 90.7 128.9 90.6C129.3 90.5 129.6 90.4 130 90.4C130.2 90.4 130.3 90.3 130.5 90.3C131.7 90 133 89.8 134.3 89.6L101.9 8C97.5 9.5 93.1 11.2 88.9 13L120.5 92.6C121.3 92.4 122 92.2 122.7 92Z" fill="var(--color-isotype)"></path>
    <path d="M76.1 118.1L79.2 115.2C79.5 114.9 79.8 114.7 80.1 114.4C81 113.6 81.9 112.8 82.9 112.1C83.3 111.8 83.7 111.5 84.1 111.2C84.2 111.1 84.4 111 84.5 110.9L17.6 79.5C16 82.6 14.4 85.8 13 89L75.8 118.4C75.9 118.4 76 118.2 76.1 118.1Z" fill="var(--color-isotype)"></path>
    <path d="M62.8 133.9L63.2 133.4C64.7 131.2 66.3 129.1 68 127L4.39999 114.9C3.69999 118 3.10001 121.1 2.60001 124.2L61.8 135.5C62.1 134.9 62.4 134.4 62.8 133.9Z" fill="var(--color-isotype)"></path>
    <path d="M50.6 157.7L51.8 154.4C52.5 152.6 53.2 150.9 54 149.2L0.5 152.6C0.6 155.4 0.7 158.2 1 160.9L50.6 157.7Z" fill="var(--color-isotype)"></path>
    <path d="M45.3 179.6C45.4 178.8 45.5 178 45.6 177.3L6.39999 190C7.09999 192.3 7.80001 194.6 8.60001 196.9L44.8 185.2C45 182.8 45.3 179.6 45.3 179.6Z" fill="var(--color-isotype)"></path>
    <path d="M253.4 109.6C253.5 107.8 253.5 106.1 253.5 104.3C253.5 99 253.1 93.7 252.3 88.6L213.5 106.8L249.8 76.9C248.1 70.6 245.8 64.5 242.9 58.7L198.3 95.5L235 45.2C231.6 40.3 227.8 35.7 223.6 31.5L181.8 89L209.5 19.4C205.1 16.3 200.3 13.5 195.4 11L165.5 86.1L175.9 3.7C170.9 2.4 165.8 1.39999 160.5 0.899994L149.7 86.4L138.8 0.699997C133.7 0.999997 128.7 1.6 123.8 2.5L134.8 89.6C138.4 89.1 141.9 88.9 144.1 88.8C145.3 88.7 146.4 88.7 147.6 88.7C148.1 88.7 148.6 88.7 149.1 88.7H149.3C149.5 88.7 149.7 88.7 149.9 88.7C150.2 88.7 150.4 88.7 150.7 88.7C155.2 88.8 159.5 89.4 163.7 90.5L164.1 90.6L164.8 90.8C169 91.9 173.1 93.5 176.9 95.5L178.7 96.5C182.2 98.5 185.6 100.9 188.6 103.5C188.8 103.7 189 103.8 189.2 104C189.8 104.5 190.4 105.1 191 105.6C193.7 108.2 196.1 111 198.2 114C198.4 114.3 198.6 114.6 198.8 114.9C199.4 115.8 200 116.7 200.5 117.6C202.2 120.4 203.7 123.4 205 126.6C205.3 127.4 205.6 128.2 205.9 129.1C206.2 129.8 206.4 130.6 206.6 131.3C206.6 131.4 206.7 131.5 206.7 131.6C207.5 134.4 208.2 137.4 208.6 140.4L209.1 146.8C209.1 147.4 209.1 148 209.1 148.7C209.1 149.5 209.1 150.2 209.1 151C209.1 151.3 209.1 151.5 209.1 151.8C209 152.8 209 153.8 208.9 154.8C208.9 155.1 208.8 155.4 208.8 155.7C208.7 156.6 208.6 157.6 208.4 158.5C208.3 159.1 208.2 159.7 208.1 160.3C208 160.9 207.9 161.4 207.7 161.9C207.7 162 207.7 162 207.7 162.1C207.2 164.4 206.5 166.6 205.7 168.8C205.6 169.2 205.4 169.5 205.3 169.9C205.3 170 205.3 170 205.2 170.1C205.1 170.4 205 170.7 204.8 171V171.1C204.7 171.4 204.5 171.8 204.4 172.1C204.2 172.5 204.1 172.8 203.9 173.2C203.6 173.8 203.3 174.5 203 175.1C203 175.2 203 175.2 202.9 175.3C202.8 175.5 202.7 175.7 202.6 175.9C202.5 176.1 202.4 176.4 202.2 176.6C201.3 178.4 200.2 180.1 199.1 181.8C197.6 184.1 195.9 186.3 194.1 188.3C193.8 188.6 193.5 189 193.2 189.3C192.1 190.5 190.9 191.7 189.6 192.8C187 195.2 184.2 197.3 181.1 199.2C179.5 200.2 177.8 201.2 176 202.1C168.6 205.7 160.4 208 151.6 208.4C151.7 208.4 151.9 208.4 152.4 208.4C156 208.3 159.5 208 163 207.5C163.1 207.5 163.5 207.4 163.5 207.4C168.2 206.7 172.8 205.8 177.3 204.5L179.6 203.9C180 203.8 180.4 203.7 180.8 203.5C181.5 203.3 182.2 203 182.9 202.8C183.3 202.7 183.7 202.5 184.1 202.4C184.8 202.2 185.5 201.9 186.1 201.7C186.7 201.5 187.3 201.3 187.8 201C188.4 200.8 188.9 200.5 189.5 200.3C190 200.1 190.6 199.8 191.1 199.6C191.7 199.3 192.3 199.1 192.8 198.8C193.7 198.4 194.7 197.9 195.6 197.5C196.1 197.3 196.5 197.1 196.9 196.8C197.3 196.6 197.6 196.4 198 196.2C198.4 196 198.7 195.8 199.1 195.6C199.5 195.4 199.9 195.2 200.3 194.9C200.6 194.7 200.9 194.5 201.3 194.3C201.4 194.3 201.4 194.2 201.5 194.2H201.6C201.7 194.1 201.8 194.1 202 194C202.5 193.7 202.9 193.4 203.4 193.2C203.5 193.2 203.5 193.1 203.6 193.1C203.9 192.9 204.3 192.7 204.6 192.5C204.8 192.4 205.1 192.2 205.3 192.1C205.4 192 205.6 191.9 205.7 191.8C205.8 191.7 205.9 191.7 205.9 191.6C206.1 191.5 206.3 191.3 206.5 191.2C206.5 191.2 206.5 191.2 206.6 191.2C206.8 191.1 207 190.9 207.3 190.8L207.4 190.7C207.4 190.7 207.4 190.7 207.5 190.7C207.8 190.5 208.1 190.3 208.4 190.1C208.6 189.9 208.9 189.8 209.1 189.6C209.5 189.3 209.9 189 210.3 188.7C210.4 188.6 210.5 188.5 210.6 188.5C210.9 188.3 211.2 188 211.6 187.8C212.4 187.2 213.1 186.7 213.9 186.1C214.3 185.8 214.7 185.5 215.1 185.2C216 184.4 217 183.7 217.9 182.9C218.1 182.8 218.2 182.6 218.4 182.5C218.6 182.4 218.7 182.2 218.8 182.1L221.9 179.2C224.4 176.8 226.7 174.3 228.9 171.7C229.2 171.4 229.5 171 229.7 170.7C231.5 168.5 233.2 166.3 234.8 164L234.9 163.9L235.2 163.5C237.7 159.9 240 156 242 152.1C242.1 151.8 242.3 151.6 242.4 151.3C242.8 150.5 243.2 149.7 243.6 148.9C244.5 147 245.4 145 246.1 143L238.1 142.5L234.1 142.2L247.3 139.7C249.6 133.4 251.2 126.9 252.2 120.1C252.2 120.1 252.3 119.1 252.4 117.8L225.8 122.9L253.4 109.6Z" fill="var(--color-isotype)"></path>
  </g>
</svg>
